<svg width="519" height="424" viewBox="0 0 519 424" fill="none" xmlns="http://www.w3.org/2000/svg">
<path d="M109.954 423.668C99.3255 423.74 89.1827 423.594 79.0605 423.987C74.8817 424.149 73.002 422.772 71.4861 418.905C48.2621 359.663 24.9573 300.452 1.38058 241.349C-0.807658 235.864 -0.526431 232.292 3.17614 227.487C32.6351 189.264 61.7094 150.746 91.0255 112.413C92.6387 110.304 95.1258 108.512 97.5866 107.445C177.849 72.6126 258.158 37.8895 338.458 3.14559C340.72 2.16697 342.961 1.14051 345.517 0C356.239 14.9801 366.934 29.9188 377.625 44.8612C424.037 109.732 470.417 174.626 516.945 239.414C519.42 242.86 519.568 245.436 517.879 249.226C493.184 304.635 468.613 360.097 444.179 415.62C442.332 419.819 440.191 421.42 435.424 421.447C327.098 422.071 218.773 422.886 109.954 423.668ZM320.276 127.305C323.606 95.0599 326.935 62.8147 330.353 29.7201C327.87 30.6711 326.189 31.2426 324.565 31.9464C253.296 62.8502 182.023 93.7473 110.801 124.759C108.349 125.827 105.917 127.689 104.303 129.807C78.0728 164.234 52.0239 198.797 25.7688 233.203C23.4233 236.277 23.2149 238.633 24.613 242.132C42.0139 285.673 59.2457 329.282 76.531 372.869C79.6946 380.846 82.9034 388.805 86.3251 397.357C88.7413 395.924 90.7197 394.801 92.6506 393.599C162.417 350.216 232.164 306.8 301.989 263.512C305.336 261.437 306.672 259.054 307.056 255.263C311.346 212.901 315.787 170.554 320.276 127.305ZM228.085 401.485C293.193 400.929 358.303 400.347 423.412 399.895C426.901 399.871 428.638 398.842 430.057 395.579C450.218 349.241 470.533 302.969 490.8 256.675C491.44 255.214 491.953 253.699 492.74 251.645C490.717 251.773 489.423 251.758 488.16 251.949C433.988 260.169 379.815 268.386 325.658 276.705C322.779 277.147 319.717 277.966 317.276 279.473C252.884 319.226 188.562 359.09 124.24 398.954C123.127 399.644 122.157 400.562 120.969 401.492C156.754 401.492 191.921 401.492 228.085 401.485ZM403.418 117.308C385.996 92.8642 368.573 68.4189 351.151 43.9742C350.712 44.1607 350.273 44.3472 349.834 44.5337C342.767 114.314 335.699 184.095 328.547 254.713C380.763 246.763 432.15 238.938 484.483 230.971C457.146 192.634 430.495 155.258 403.418 117.308Z" fill="#F8F9FD"/>
</svg>
