<svg width="2560" height="500" viewBox="0 0 2560 500" fill="none" xmlns="http://www.w3.org/2000/svg">
<g clip-path="url(#clip0_120_47)">
<path d="M2284.71 120.998C2285.11 112.191 2285.34 103.87 2285.98 95.5818C2286.3 91.5233 2284.78 90.1832 2280.92 90.2649C2273.92 90.413 2266.92 90.2128 2259.92 90.3398C2256.29 90.4059 2254.94 89.1746 2255.23 85.3166C2256 74.8827 2256.58 64.424 2256.81 53.9657C2256.94 48.3338 2256.14 42.6852 2255.87 37.0391C2255.69 33.451 2257.08 31.8052 2261.03 32.6888C2263.24 33.1825 2265.66 32.7353 2267.98 32.7685C2298.28 33.2017 2328.59 33.2832 2358.88 34.2401C2373.77 34.7105 2373.93 33.7011 2373.94 50.2063C2373.95 61.8729 2374.43 73.4098 2375.86 84.9359C2376.38 89.2192 2374.54 90.6227 2370.61 90.7955C2366.3 90.9857 2361.97 91.3243 2357.72 92.0077C2356.62 92.1837 2354.93 93.905 2354.93 94.9031C2355.05 106.892 2355.38 118.879 2355.79 130.863C2355.85 132.606 2356.56 134.326 2357.13 136.715C2359.26 135.661 2360.98 135.096 2362.37 134.078C2370.16 128.379 2377.84 122.529 2385.62 116.811C2395.13 109.813 2404.77 102.977 2414.19 95.8609C2415.85 94.6111 2416.73 92.3313 2417.96 90.5272C2416.08 89.7834 2414.24 88.5926 2412.3 88.3792C2406.32 87.7219 2403.99 86.2847 2403.7 80.2574C2403.07 66.9806 2402.92 53.674 2402.9 40.3789C2402.89 35.7071 2405.98 33.0051 2410.6 32.8565C2416.07 32.6807 2421.55 33.011 2427.03 33.0856C2433.82 33.1783 2440.62 33.2204 2447.41 33.308C2463.73 33.5182 2480.05 33.9182 2496.36 33.8917C2505.5 33.8769 2514.64 33.2403 2523.77 32.7363C2528.8 32.4586 2531.66 34.5825 2532.43 39.5757C2534.69 54.2969 2535.13 69.0333 2533.15 83.8348C2532.62 87.8044 2530.53 89.7412 2526.73 90.2104C2522.28 90.7614 2517.76 92.0892 2513.38 91.7267C2505.84 91.102 2499.91 93.5052 2494.41 98.4094C2485.84 106.046 2477.18 113.604 2468.2 120.75C2459.36 127.78 2450.21 134.431 2440.94 140.867C2438.1 142.839 2437.67 144.208 2439.84 146.652C2443.26 150.502 2446.7 154.332 2450.04 158.252C2454.33 163.293 2458.72 168.268 2462.73 173.527C2476.35 191.382 2489.83 209.341 2503.33 227.282C2506.25 231.162 2509.96 232.009 2514.73 231.68C2520.99 231.248 2527.36 231.577 2533.61 232.242C2535.23 232.415 2537.29 234.82 2537.91 236.624C2538.92 239.558 2539.17 242.835 2539.26 245.981C2539.56 256.275 2539.87 266.576 2539.77 276.871C2539.67 286.335 2537.52 288.405 2528.09 288.097C2521.46 287.88 2514.85 286.405 2508.23 286.421C2488.41 286.467 2468.61 287.01 2448.79 287.263C2444.47 287.318 2440.13 287.175 2435.83 286.767C2429.81 286.196 2427.82 284.189 2428.06 278.055C2428.45 268.093 2429.55 258.157 2429.89 248.194C2429.98 245.471 2429.2 242.081 2427.54 240.035C2415.07 224.668 2402.32 209.53 2389.58 194.389C2385.69 189.774 2383.71 189.421 2378.42 192.725C2371.1 197.299 2363.89 202.074 2356.84 207.048C2355.44 208.032 2354.34 210.256 2354.18 212.004C2353.76 216.788 2353.85 221.624 2353.85 226.439C2353.85 230.81 2356.34 232.231 2360.4 231.795C2363.7 231.439 2367.02 231.263 2370.33 230.974C2374.29 230.629 2376.63 232.291 2377.43 236.267C2379.96 248.929 2380.54 261.65 2378.78 274.458C2378.67 275.28 2378.4 276.08 2378.28 276.902C2376.67 287.793 2376.5 288.548 2365.24 288.562C2343.46 288.591 2321.69 287.676 2299.91 287.544C2289.29 287.479 2278.67 288.424 2268.05 288.669C2259.76 288.861 2258.42 288.286 2257.72 280.09C2256.55 266.214 2256.2 252.252 2256.01 238.319C2255.93 232.571 2258.74 230.376 2264.61 230.216C2270.1 230.066 2275.6 230.152 2281.1 230.19C2283.95 230.21 2284.87 229.592 2284.69 226.116C2284.28 218.687 2285.24 211.194 2285.13 203.735C2285 194.951 2284 186.176 2283.97 177.395C2283.92 165.431 2284.49 153.465 2284.69 141.497C2284.8 134.833 2284.71 128.165 2284.71 120.998Z" fill="#FEFEFF"/>
<path d="M1537.17 209.768C1533.55 208.028 1530.28 206.024 1526.75 205.241C1522.42 204.281 1517.87 204.335 1513.41 203.967C1510.2 203.703 1508.14 205.064 1508.08 208.387C1507.95 215.383 1507.98 222.383 1508.02 229.381C1508.04 232.493 1509.75 233.65 1512.84 233.68C1518.15 233.731 1523.45 234.067 1528.74 234.411C1533.61 234.727 1535.98 237.698 1535.92 242.331C1535.75 254.98 1535.41 267.628 1535.04 280.274C1534.93 284.074 1532.02 285.586 1528.95 285.692C1515.34 286.162 1501.71 286.365 1488.09 286.551C1482.79 286.623 1477.48 286.276 1472.18 286.329C1451.06 286.54 1429.94 286.801 1408.83 287.122C1404.57 287.186 1403.67 285.503 1403.95 281.287C1404.64 270.832 1404.57 260.328 1404.86 249.845C1405.02 244.192 1405.24 238.54 1405.53 232.892C1405.7 229.569 1407.34 228.41 1410.83 228.801C1416.09 229.393 1421.44 229.737 1426.73 229.533C1433.44 229.275 1434.27 228.189 1434.4 221.358C1434.62 209.565 1434.83 197.77 1434.83 185.976C1434.84 174.867 1434.34 163.753 1434.51 152.649C1434.71 140.344 1435.79 128.046 1435.78 115.746C1435.78 106.676 1434.65 97.607 1434 88.1951C1428.66 88.6943 1423.72 89.1643 1418.79 89.6126C1416.63 89.8079 1414.47 90.1511 1412.33 90.0944C1405.57 89.9161 1404.61 89.3672 1404.54 82.8021C1404.38 68.3172 1404.57 53.8242 1404.88 39.3403C1404.99 34.4394 1408.72 31.6849 1414.82 31.8349C1421.97 32.0107 1429.1 32.882 1436.24 32.9897C1453.07 33.2433 1469.9 33.2746 1486.72 33.3009C1514.32 33.3441 1541.96 32.3563 1569.5 33.5992C1593.66 34.6898 1616.93 40.9849 1633.86 59.8895C1650.44 78.3981 1660.59 99.5666 1657.67 125.773C1655.88 141.869 1651.72 156.591 1642.46 169.926C1636.19 178.966 1626.53 183.305 1617.61 188.674C1609.76 193.407 1608.93 195.905 1614.22 203.097C1619.94 210.872 1625.6 218.712 1631.8 226.102C1633.53 228.169 1636.98 229.631 1639.75 229.829C1646.7 230.326 1653.71 229.931 1660.69 229.913C1665.2 229.901 1668.14 231.799 1668.16 236.632C1668.21 249.435 1668.15 262.238 1668.12 275.042C1668.12 276.039 1667.93 277.038 1667.96 278.032C1668.25 287.886 1669.78 287.541 1657.65 287.961C1647.2 288.323 1636.7 287.018 1626.22 286.957C1615.43 286.894 1604.64 287.623 1593.85 287.665C1585.89 287.695 1577.91 287.361 1569.97 286.824C1566.46 286.587 1564.9 284.021 1565.03 280.489C1565.33 272.337 1565.46 264.175 1565.93 256.034C1566.21 251.227 1565.69 246.953 1562.54 242.944C1554.01 232.095 1545.76 221.027 1537.17 209.768ZM1577.09 143.632C1585.2 135.277 1587.12 125.035 1585.34 114.07C1582.95 99.2711 1571.33 89.6346 1556.52 89.8221C1547.56 89.9355 1538.61 90.7121 1529.66 90.6948C1524.71 90.6852 1519.77 89.5515 1514.81 89.1127C1510.36 88.7198 1507.79 90.7327 1507.78 95.3941C1507.75 112.322 1507.75 129.251 1507.73 146.179C1507.72 149.18 1509.15 150.853 1512.18 151.033C1518.32 151.398 1524.48 152.249 1530.59 151.976C1540.35 151.539 1550.06 150.041 1559.83 149.588C1566.05 149.3 1571.6 147.863 1577.09 143.632Z" fill="#FEFEFF"/>
<path d="M666 287.1C649.186 286.87 632.872 286.505 616.558 286.458C606.273 286.428 595.986 286.847 585.701 287.114C581.171 287.232 578.731 285.095 578.765 280.583C578.874 266.329 578.743 252.058 579.434 237.829C579.74 231.51 585.17 229.134 593.113 230.309C596.543 230.817 600.044 230.993 603.514 231.023C606.279 231.047 607.288 229.871 607.119 226.618C606.484 214.327 606.026 202.005 606.162 189.702C606.35 172.576 607.297 155.46 607.61 138.334C607.878 123.711 607.59 109.079 607.826 94.455C607.88 91.073 607.159 89.5122 603.583 89.5491C597.941 89.6072 592.296 89.2868 586.655 89.3554C581.528 89.4177 580.066 86.6328 580.148 82.0693C580.267 75.4061 580.358 68.7331 580.13 62.0755C579.893 55.1421 579.13 48.2274 578.851 41.2943C578.652 36.3606 581.489 33.9857 586.272 33.8749C589.742 33.7944 593.217 33.9049 596.689 33.8676C608.788 33.7377 620.886 33.5703 632.985 33.4423C635.474 33.4159 638.002 33.2272 640.446 33.5725C660.364 36.3855 680.293 34.4008 700.239 34.1606C723.171 33.8844 746.222 32.2754 768.984 36.9683C794.193 42.166 815.322 54.2785 824.962 78.7247C833.633 100.715 831.768 123.249 816.298 142.903C814.477 145.217 811.911 146.942 809.708 148.959C805.913 152.434 805.674 154.56 809.473 158.055C817.907 165.817 824.526 174.702 829.328 185.218C842.214 213.437 836.564 246.864 810.101 267.829C795.991 279.007 779.687 282.91 762.705 285.863C736.86 290.358 710.922 288.325 684.986 287.323C678.831 287.086 672.662 287.166 666 287.1ZM763.633 214.834C765.226 207.108 764.948 199.736 760.284 192.892C754.725 184.735 746.487 182.217 737.385 182.091C719.557 181.843 701.723 182.045 683.892 181.987C679.573 181.973 677.165 184.071 677.122 188.231C676.99 201.061 676.961 213.896 677.179 226.724C677.246 230.683 679.514 233.056 683.927 233.037C701.591 232.958 719.261 233.256 736.919 232.91C749.109 232.671 758.881 227.945 763.633 214.834ZM702.592 131.974C712.898 131.575 723.216 131.377 733.504 130.704C739.963 130.281 746.463 129.36 751.579 124.689C757.869 118.946 759.01 111.562 756.383 104.112C753.809 96.809 748.724 90.6787 740.365 90.1267C729.772 89.4272 719.102 89.9082 708.465 89.8503C700.468 89.8068 692.471 89.6986 684.474 89.6536C680.232 89.6297 677.312 91.3465 677.111 95.9529C676.695 105.428 676.421 114.909 676.052 124.386C675.87 129.053 678.317 131.029 682.721 131.192C689.032 131.426 695.341 131.71 702.592 131.974Z" fill="#FEFEFF"/>
<path d="M1119.32 88.8551C1118.11 85.0542 1116.61 81.4967 1116.53 77.908C1116.31 67.927 1116.45 57.923 1116.88 47.9464C1117.51 33.2401 1118.5 32.0904 1134.35 32.7164C1143.62 33.0827 1152.92 33.0148 1162.2 33.0267C1187.52 33.0591 1212.85 32.9309 1238.17 33.0706C1249.48 33.133 1260.79 33.449 1272.08 34.1192C1277.34 34.4319 1282.69 35.3623 1287.75 36.8706C1307.98 42.9067 1328.86 48.0916 1344.92 62.8251C1365.54 81.735 1382.71 103.637 1385.24 132.497C1387.42 157.41 1388.51 182.804 1377.88 206.767C1375.8 211.458 1374.4 216.469 1372.93 221.406C1369.05 234.487 1359.73 243.402 1350.11 252.283C1334.6 266.591 1316.91 276.888 1296.28 281.234C1276.92 285.31 1257.43 288.77 1237.43 288.238C1221.46 287.813 1205.47 288.187 1189.49 288.155C1171.37 288.117 1153.25 288.015 1135.13 287.96C1133.47 287.955 1131.8 288.164 1130.14 288.132C1118.04 287.9 1114.98 283.991 1115.76 271.784C1116.28 263.559 1115.63 255.258 1115.49 246.992C1115.47 245.829 1115.28 244.669 1115.28 243.507C1115.28 232.534 1120.81 228.428 1131.68 230.95C1135.18 231.763 1138.87 231.831 1142.48 232.079C1144.97 232.25 1145.65 231.258 1145.57 228.467C1144.86 202.529 1144.14 176.584 1144.01 150.639C1143.93 135.189 1144.92 119.736 1145.36 104.282C1145.49 99.8057 1145.38 95.3225 1145.38 89.3994C1142.26 89.3994 1138.61 89.4384 1134.95 89.3899C1129.86 89.3223 1124.77 89.1892 1119.32 88.8551ZM1307.95 124.638C1300 106.308 1286.55 95.0246 1266.26 93.7146C1252.99 92.8574 1239.63 93.1767 1226.31 93.1921C1223.09 93.1958 1219.86 94.0807 1217.27 94.4661C1217.27 98.3455 1217.39 101.464 1217.25 104.57C1216.57 119.351 1215.38 134.123 1215.17 148.91C1214.82 174.292 1215.08 199.683 1215.08 225.188C1216.54 225.44 1217.32 225.677 1218.11 225.698C1232.59 226.065 1247.07 226.863 1261.53 226.601C1271.95 226.411 1281.82 223.513 1290.35 216.843C1304.15 206.047 1310.59 191.263 1313.88 174.679C1317.26 157.644 1314.8 141.257 1307.95 124.638Z" fill="#FEFEFF"/>
<path d="M116.024 456.252C105.364 456.324 95.1915 456.177 85.0397 456.573C80.8486 456.736 78.9634 455.351 77.4431 451.462C54.1511 391.889 30.7781 332.346 7.13242 272.912C4.93778 267.396 5.21983 263.804 8.93324 258.973C38.4784 220.536 67.6378 181.802 97.0397 143.254C98.6576 141.133 101.152 139.331 103.62 138.258C184.117 103.231 264.661 68.3135 345.196 33.3751C347.465 32.391 349.712 31.3588 352.276 30.2119C363.029 45.2759 373.756 60.2982 384.478 75.3243C431.026 140.558 477.541 205.816 524.206 270.966C526.688 274.432 526.836 277.022 525.142 280.833C500.375 336.552 475.732 392.325 451.227 448.159C449.374 452.381 447.227 453.991 442.446 454.018C333.803 454.646 225.161 455.466 116.024 456.252ZM326.961 158.23C330.301 125.804 333.64 93.3783 337.068 60.0984C334.577 61.0547 332.891 61.6294 331.263 62.3372C259.785 93.414 188.303 124.484 116.873 155.669C114.414 156.743 111.975 158.616 110.356 160.746C84.0491 195.365 57.9239 230.122 31.592 264.721C29.2396 267.812 29.0306 270.181 30.4328 273.699C47.8846 317.484 65.1669 361.337 82.5028 405.168C85.6756 413.19 88.8938 421.194 92.3255 429.794C94.7488 428.353 96.733 427.223 98.6695 426.015C168.64 382.389 238.591 338.73 308.621 295.199C311.977 293.113 313.317 290.716 313.702 286.904C318.005 244.305 322.459 201.721 326.961 158.23ZM234.5 433.945C299.799 433.386 365.099 432.8 430.399 432.346C433.898 432.322 435.64 431.287 437.063 428.006C457.283 381.408 477.658 334.877 497.984 288.324C498.626 286.855 499.14 285.331 499.93 283.266C497.901 283.395 496.603 283.379 495.336 283.571C441.006 291.837 386.674 300.1 332.359 308.466C329.471 308.911 326.4 309.734 323.952 311.25C259.372 351.225 194.862 391.312 130.351 431.4C129.235 432.093 128.262 433.017 127.071 433.952C162.961 433.952 198.23 433.952 234.5 433.945ZM410.346 148.177C392.873 123.596 375.399 99.0139 357.926 74.4323C357.486 74.6198 357.046 74.8074 356.606 74.9949C349.518 145.166 342.429 215.338 335.256 286.351C387.625 278.356 439.162 270.488 491.649 262.476C464.232 223.924 437.503 186.339 410.346 148.177Z" fill="#FBFCFE"/>
<path d="M1862.46 289.48C1834.88 297.091 1807.82 295.901 1780.94 288.021C1764.65 283.245 1748.57 277.859 1734.04 268.787C1731.52 267.216 1729.05 265.424 1726.97 263.329C1718.88 255.187 1710.79 247.031 1703 238.595C1694.83 229.733 1692.01 218.217 1688.63 207.123C1681.5 183.742 1678.28 159.796 1683.22 135.68C1688.02 112.255 1695.18 89.111 1711.8 71.2189C1720.56 61.7824 1732.31 54.9145 1743.31 47.798C1764.93 33.8041 1789.6 29.9223 1814.66 28.0885C1843.72 25.9615 1871.81 30.4491 1898.09 43.1635C1917.43 52.5177 1932.22 67.2333 1942.87 85.9784C1945.58 90.7512 1948.15 95.6118 1951.03 100.281C1957.85 111.332 1959.61 123.854 1962.19 136.238C1966.24 155.711 1962.46 174.65 1959.38 193.69C1952.83 234.282 1928.78 261.691 1893.18 279.667C1883.83 284.391 1872.99 286.189 1862.46 289.48ZM1753.85 150.37C1751.9 168.087 1754.27 185.059 1764.4 200.028C1782.21 226.332 1809.23 234.773 1840.47 230.053C1854.72 227.9 1864.61 218.85 1873.72 208.653C1880.26 201.332 1884.73 192.882 1887.34 183.447C1891.04 170.062 1890.84 156.493 1888.92 142.9C1886.1 122.938 1874.4 108.853 1858.72 97.3092C1848.34 89.6616 1836.35 88.3133 1824.15 88.1537C1808.31 87.9465 1793.18 91.6674 1780.32 100.98C1764.04 112.766 1756.32 129.819 1753.85 150.37Z" fill="#FEFEFF"/>
<path d="M1060.86 201.147C1065.47 200.741 1069.62 199.976 1073.75 200.027C1085.48 200.172 1089.04 202.231 1086.94 214.894C1083.73 234.197 1086.64 253.054 1086.88 272.104C1087.07 287.014 1086.34 288.937 1071.35 288.968C1044.7 289.024 1018.04 288.641 991.39 288.537C970.953 288.458 950.515 288.579 930.079 288.511C912.097 288.451 894.115 288.296 876.135 288.072C873.327 288.037 870.523 287.435 867.723 287.058C857.979 285.746 856.796 285.01 856.95 275.335C857.144 263.05 857.983 250.754 859.105 238.514C859.857 230.303 863.284 228.369 871.371 230.384C872.661 230.706 873.897 231.266 875.196 231.524C882.266 232.928 886.077 230.768 886.412 223.66C887.006 211.082 886.749 198.46 886.743 185.857C886.734 167.379 886.526 148.901 886.61 130.423C886.658 119.96 887.667 109.474 887.219 99.0426C886.868 90.8662 882.849 88.3413 874.541 89.1761C873.549 89.2758 872.573 89.5379 871.581 89.638C862.414 90.563 859.702 88.848 859.32 79.8399C858.793 67.426 858.706 54.9541 859.277 42.546C859.707 33.1982 863.815 30.3345 873.157 32.4139C891.973 36.6018 910.979 34.8718 929.919 34.7738C946.71 34.6868 963.498 33.5341 980.287 33.5691C1000.42 33.611 1020.55 34.6639 1040.68 34.7667C1049.14 34.8099 1057.59 33.5402 1066.05 32.8606C1066.54 32.8207 1067.05 32.6213 1067.53 32.6625C1076.95 33.4613 1079.86 31.1066 1080.44 42.8169C1081.12 56.7647 1081.82 70.7296 1081.82 84.6873C1081.83 94.6306 1080.67 104.572 1080.1 114.519C1079.9 118.144 1078.06 120.313 1074.52 120.211C1060.07 119.795 1045.62 119.412 1031.2 118.47C1026.63 118.171 1026.08 113.638 1026.04 109.94C1026 105.631 1026.47 101.312 1026.83 97.0065C1027.12 93.588 1025.66 91.9716 1022.24 92.1692C1017.11 92.4662 1011.97 92.9573 1006.83 93.0652C994.519 93.3234 982.202 93.3962 969.887 93.569C967.557 93.6016 964.933 93.1128 962.983 94.0212C960.964 94.962 958.282 97.2325 958.176 99.0548C957.692 107.346 957.73 115.697 958.134 124C958.468 130.864 960.14 132.642 966.988 132.866C977.118 133.197 987.275 132.619 997.414 132.816C1003.53 132.935 1009.71 133.34 1015.7 134.439C1021.75 135.546 1020.3 141.339 1020.4 145.16C1020.67 156.284 1020.19 167.43 1019.86 178.563C1019.63 186.762 1016.77 189.735 1008.63 189.977C1005.34 190.074 1002.02 188.958 998.731 189.019C987.283 189.231 975.828 189.516 964.402 190.204C960.155 190.46 957.16 193.456 957.287 197.846C957.545 206.814 958.105 215.793 959.06 224.712C959.528 229.085 963.633 227.743 966.34 227.713C975.488 227.611 984.631 227.04 993.778 226.978C1004.77 226.903 1015.76 227.039 1026.75 227.352C1030.55 227.461 1030.83 224.975 1030.93 222.536C1031.11 218.245 1030.47 213.895 1030.91 209.644C1031.59 202.979 1032.89 202.028 1039.4 201.801C1046.39 201.558 1053.38 201.372 1060.86 201.147Z" fill="#FEFEFF"/>
<path d="M2206.1 220.902C2213.8 229.428 2221.29 237.657 2228.69 245.974C2231.64 249.296 2231.3 252.223 2227.82 255.351C2207.25 273.857 2183.9 286.211 2155.96 289.028C2149.36 289.694 2142.88 291.641 2136.28 292.199C2116.5 293.87 2097.11 291.657 2078.34 284.993C2069.74 281.939 2061.04 279.056 2052.7 275.372C2039.28 269.436 2029.57 258.666 2019.88 248.152C2001.37 228.052 1992.93 203.744 1989.63 176.893C1986.95 155.101 1988.03 133.991 1996.02 113.559C2000.79 101.383 2004.52 88.4341 2013.37 78.4313C2019.05 72.0091 2026.35 67.0569 2032.63 61.1296C2061.44 33.9328 2096.99 27.1975 2134.7 28.1314C2156.69 28.6759 2178.07 33.2426 2197.04 45.1241C2204.47 49.7723 2211.17 55.6548 2217.82 61.4153C2219.51 62.8874 2220.52 66.0286 2220.55 68.416C2220.68 81.2275 2220.25 94.0439 2220.31 106.857C2220.34 113.803 2221.07 120.743 2221.29 127.692C2221.45 132.867 2218.76 135.741 2213.57 136.233C2212.74 136.311 2211.92 136.65 2211.11 136.624C2195.18 136.1 2179.25 135.633 2163.32 134.924C2159.08 134.735 2156.62 132.215 2156.87 127.683C2157.32 119.914 2158.02 112.153 2158.2 104.379C2158.38 96.527 2156.83 93.8203 2149.2 92.3541C2141.96 90.9619 2134.39 91.319 2126.97 90.827C2095.23 88.7229 2070.61 111.342 2062.39 139.235C2054.81 164.928 2061.69 187.763 2076.36 208.936C2078.19 211.57 2080.94 214.15 2083.85 215.344C2096.27 220.45 2108.58 226.545 2121.57 229.378C2134.97 232.303 2148.92 229.57 2161.56 223.792C2169.51 220.161 2176.91 215.233 2184.25 210.436C2188.11 207.923 2191.29 206.92 2194.91 210.428C2198.5 213.899 2202.21 217.242 2206.1 220.902Z" fill="#FEFEFF"/>
<path d="M827.814 438.788C816.565 456.34 802.325 460.862 778.79 454.185C778.79 459.612 778.79 464.852 778.79 470.091C778.79 475.229 778.79 480.368 778.79 485.964C781.182 485.964 783.934 485.964 786.94 485.964C786.94 488.344 786.94 490.275 786.94 492.875C777.462 492.875 768.032 492.936 758.606 492.762C757.83 492.748 756.521 491.166 756.476 490.263C756.427 489.273 757.428 487.453 758.196 487.324C764.546 486.253 764.763 481.269 764.904 476.658C765.204 466.842 765.088 457.014 765.121 447.19C765.153 437.866 765.164 428.542 765.172 419.217C765.18 409.906 765.174 400.594 765.174 390.853C762.382 390.853 759.341 390.853 755.864 390.853C755.864 388.4 755.864 386.354 755.864 384.718C763.194 383.013 770.301 381.361 777.564 379.672C778.043 382.031 778.424 383.911 778.683 385.189C785.262 383.078 791.498 379.85 797.984 379.226C816.983 377.399 831.948 391.15 833.518 410.99C834.28 420.629 832.915 429.93 827.814 438.788ZM799.695 387.45C792.343 385.904 786.272 388.66 780.935 393.341C779.868 394.277 779.085 396.137 779.07 397.581C778.92 412.575 778.884 427.573 779.045 442.567C779.061 444.048 780.233 446.052 781.486 446.9C793.322 454.907 807.969 450.89 813.616 437.739C818.723 425.846 819.323 413.486 814.617 401.244C812.075 394.63 807.947 389.318 799.695 387.45Z" fill="#F8F9FD"/>
<path d="M677.95 443C677.951 425.361 677.951 408.222 677.951 390.704C674.784 390.704 671.743 390.704 668.385 390.704C668.385 388.419 668.385 386.506 668.385 384.722C675.622 383.054 682.863 381.384 690.407 379.645C690.738 382.067 690.997 383.958 691.305 386.211C694.938 384.393 698.173 382.365 701.68 381.088C720.207 374.34 738.54 383.687 744.306 402.649C751.418 426.041 739.241 450.646 717.572 456.428C708.781 458.774 700.156 457.682 691.357 453.774C691.357 464.753 691.357 475.128 691.357 485.884C693.943 485.884 696.535 485.884 699.496 485.884C699.496 488.28 699.496 490.306 699.496 492.626C689.406 492.626 679.495 492.626 669.428 492.626C668.809 489.686 668.486 487.871 672.32 486.593C674.482 485.872 676.783 482.016 676.94 479.444C677.674 467.487 677.681 455.485 677.95 443ZM727.979 403.697C722.754 386.068 706.777 382.585 694.545 392.41C693.093 393.577 691.787 395.892 691.751 397.702C691.459 412.347 691.356 427 691.573 441.645C691.602 443.62 693.254 446.389 694.972 447.393C708.467 455.287 722.755 449.536 727.483 434.462C730.587 424.565 731.06 414.535 727.979 403.697Z" fill="#F9FAFE"/>
<path d="M596.428 401.292C602.472 384.833 608.317 368.715 614.339 352.664C614.868 351.253 616.395 349.726 617.774 349.317C618.548 349.087 620.537 350.816 621.018 352.041C632.095 380.235 643.082 408.466 653.956 436.74C655.253 440.112 655.802 443.771 656.844 447.875C659.491 447.875 662.558 447.875 665.994 447.875C665.994 450.454 665.994 452.525 665.994 454.884C654.797 454.884 643.725 454.884 632.352 454.884C631.939 452.095 630.966 449.672 635.256 449.042C639.542 448.413 641.131 445.066 640.122 441.219C638.651 435.608 636.635 430.124 634.526 424.713C634.168 423.794 632.173 423.007 630.94 423.015C620.612 423.084 610.281 423.276 599.96 423.658C598.629 423.708 596.564 424.775 596.167 425.858C593.543 433.005 591.282 440.285 588.711 448.103C592.423 448.103 595.652 448.103 599.238 448.103C599.238 450.498 599.238 452.41 599.238 454.747C590.012 454.747 580.801 454.747 571.396 454.747C570.614 451.723 570.974 450.254 574.581 448.652C577.747 447.247 580.585 443.404 581.971 439.99C587.097 427.356 591.562 414.453 596.428 401.292ZM618.264 380.178C617.43 378.068 616.596 375.959 615.762 373.849C615.362 373.795 614.963 373.74 614.564 373.685C609.528 387.718 604.492 401.751 599.343 416.098C610.52 416.098 620.784 416.098 631.464 416.098C627.002 403.96 622.765 392.437 618.264 380.178Z" fill="#F8F9FD"/>
<path d="M1331.8 397.457C1332.47 414.628 1333.04 431.396 1333.62 448.489C1336.04 448.489 1338.63 448.489 1341.59 448.489C1341.59 450.692 1341.59 452.585 1341.59 454.822C1331.69 454.822 1321.77 454.822 1311.63 454.822C1310.6 452.204 1310.93 450.767 1314 449.254C1316.24 448.151 1318.84 445.036 1318.92 442.741C1319.34 429.771 1319.52 416.751 1318.79 403.804C1318.41 396.942 1315.94 389.998 1307.97 388.033C1299.64 385.979 1292.59 389.12 1286.71 395.002C1285.87 395.844 1285.2 397.301 1285.19 398.478C1285.1 414.943 1285.13 431.408 1285.13 448.348C1287.57 448.348 1290.12 448.348 1293.03 448.348C1293.03 450.719 1293.03 452.62 1293.03 454.844C1283.1 454.844 1273.21 454.844 1263.31 454.844C1262.92 454.492 1262.54 454.141 1262.15 453.79C1263.31 452.373 1264.19 450.282 1265.68 449.676C1269.1 448.286 1270.86 445.988 1270.88 442.519C1270.96 425.393 1270.92 408.265 1270.92 390.771C1268.49 390.771 1265.6 390.771 1262.27 390.771C1262.27 388.462 1262.27 386.433 1262.27 384.663C1269.41 383.014 1276.51 381.374 1283.95 379.656C1284.34 382.4 1284.65 384.614 1285.05 387.475C1293.53 381.677 1302.25 377.902 1312.36 379.038C1323.26 380.262 1329.15 386.86 1331.8 397.457Z" fill="#FAFBFE"/>
<path d="M1249.81 405.329C1255.01 426.304 1245.29 448.093 1227.47 455.006C1202.42 464.725 1173.09 447.129 1176.91 414.316C1178.95 396.834 1189.94 383.529 1204.62 379.986C1224.46 375.196 1242.52 385.188 1249.81 405.329ZM1192.33 415.515C1194.05 423.239 1194.93 431.288 1197.73 438.597C1200.61 446.087 1206.68 450.998 1215.47 450.772C1224.23 450.548 1229.78 445.652 1232.41 437.714C1237.22 423.22 1236.43 408.896 1229.48 395.194C1226.21 388.747 1220.71 385.385 1213.32 385.529C1206 385.671 1200.12 388.919 1197.4 395.567C1194.93 401.608 1193.97 408.269 1192.33 415.515Z" fill="#F9FAFE"/>
<path d="M1047.68 402.15C1047.44 400.36 1047.21 399.049 1046.99 397.737C1044.92 385.672 1032.09 380.918 1022.63 388.93C1021.3 390.057 1021.26 392.743 1020.68 394.726C1019.86 397.57 1019.88 401.222 1018.05 403.025C1016.69 404.368 1011.84 404.415 1010.58 403.094C1008.64 401.064 1007.53 397.301 1007.73 394.389C1008.09 389.188 1012.06 385.924 1016.43 383.568C1024.94 378.986 1034.16 377.815 1043.52 379.461C1053.96 381.296 1059.51 387.261 1060.44 398.159C1061.26 407.748 1060.97 417.437 1061.08 427.082C1061.16 434.029 1061.1 440.978 1061.1 448.039C1064.13 450.225 1072.69 444.299 1070.43 454.727C1063.5 454.727 1056.45 454.727 1049.2 454.727C1048.78 452.959 1048.32 451.067 1047.73 448.608C1044.98 450.386 1042.59 452.048 1040.1 453.527C1032.52 458.014 1024.34 458.714 1016.04 456.452C1002.41 452.735 998.166 437.012 1008.09 426.813C1016.7 417.956 1028.11 415.377 1039.82 413.998C1047.73 413.067 1047.75 413.242 1047.68 402.15ZM1043.62 419.783C1041.98 420.048 1040.25 420.063 1038.72 420.622C1033.61 422.488 1028.27 424.022 1023.59 426.682C1018.91 429.339 1016.79 434.401 1018.2 439.574C1019 442.504 1021.6 445.735 1024.28 447.199C1030.25 450.458 1043.63 445.879 1047.13 440.067C1047.52 439.407 1047.68 438.512 1047.69 437.723C1047.74 432.741 1047.91 427.745 1047.58 422.785C1047.5 421.689 1045.59 420.717 1043.62 419.783Z" fill="#F8F9FD"/>
<path d="M1378.52 457.332C1372.63 456.055 1367.17 454.827 1362.59 453.797C1359.8 454.906 1357.38 455.873 1354.03 457.208C1353.56 447.697 1353.16 439.464 1352.75 431.081C1356.41 429.894 1358.29 429.857 1359.14 434.349C1361.68 447.688 1376.96 454.707 1389.21 448.571C1395.95 445.193 1397.36 437.655 1391.72 432.586C1388.84 429.986 1385.08 428.234 1381.52 426.526C1375.97 423.869 1370.04 421.962 1364.65 419.043C1354.99 413.819 1351.16 405.3 1353.48 395.795C1355.91 385.896 1363.79 379.597 1374.39 378.959C1381.52 378.53 1388.33 379.481 1393.38 382.616C1396.67 381.175 1399.21 380.064 1402.92 378.439C1402.92 387.98 1403 395.896 1402.8 403.806C1402.79 404.583 1401.05 406.011 1400.27 405.913C1399.13 405.773 1397.61 404.734 1397.17 403.692C1395.96 400.807 1395.59 397.535 1394.21 394.753C1390.28 386.85 1382.59 383.591 1374.11 385.956C1370.04 387.09 1366.8 389.35 1365.82 393.721C1364.87 398.01 1366.24 401.811 1369.76 404.316C1373.12 406.705 1376.81 408.672 1380.52 410.493C1385.45 412.91 1390.67 414.741 1395.51 417.294C1405.01 422.299 1409.13 429.671 1407.91 438.613C1406.66 447.802 1400.06 454.66 1389.84 456.765C1386.32 457.491 1382.59 457.205 1378.52 457.332Z" fill="#F7F8FD"/>
<path d="M950.408 441.541C962.369 453.022 972.555 451.738 989.905 436.654C991.15 437.536 992.468 438.469 993.735 439.366C989.372 449.917 974.52 458.27 961.572 457.663C939.862 456.645 925.396 440.831 926.066 418.847C926.743 396.61 943.439 379.078 963.976 378.922C973.101 378.852 981.469 380.727 988.233 387.361C991.595 390.66 992.673 394.69 992.067 399.235C991.541 403.18 988.284 405.821 984.409 405.565C980.425 405.303 978.01 402.413 977.983 398.111C977.963 395.048 981.276 391.049 977.111 389.138C972.744 387.134 967.699 385.461 962.999 385.58C954.865 385.785 948.78 390.682 945.845 398.161C939.973 413.121 940.424 427.734 950.408 441.541Z" fill="#F8F9FD"/>
<path d="M1107.08 447.45C1115.4 449.924 1120.23 445 1125.11 439.492C1126.68 440.765 1128.02 441.858 1129.28 442.887C1123.95 454.358 1111.69 460.155 1100.18 456.738C1091.69 454.217 1087.98 447.547 1087.33 439.477C1086.54 429.72 1086.7 419.88 1086.56 410.074C1086.49 405.084 1086.66 400.089 1086.72 395.097C1086.79 388.366 1086.78 388.093 1080.09 388.421C1074.03 388.718 1075.38 385.066 1075.72 381.369C1084.81 380.364 1088.85 373.767 1092.33 366.551C1092.83 365.504 1092.96 364.109 1093.74 363.402C1095.02 362.239 1096.64 361.033 1098.24 360.825C1098.89 360.741 1100.52 363.193 1100.59 364.55C1100.87 369.82 1100.7 375.115 1100.7 380.928C1108.98 380.928 1116.72 380.928 1124.83 380.928C1124.83 383.35 1124.83 385.249 1124.83 387.869C1117.01 387.869 1109.13 387.869 1101.23 387.869C1101.23 405.304 1100.97 422.047 1101.48 438.767C1101.56 441.653 1104.88 444.441 1107.08 447.45Z" fill="#F8F9FD"/>
<path d="M871.707 455.151C862.428 455.154 853.621 455.154 843.179 455.154C844.559 452.743 845.123 450.277 846.33 449.906C851.409 448.345 852.361 444.562 852.392 440.173C852.505 423.849 852.548 407.524 852.585 391.199C852.613 379.064 852.591 366.929 852.591 354.73C849.762 352.208 840.632 359.1 843.017 348.61C850.599 346.958 858.033 345.34 865.995 343.605C865.995 378.75 865.995 413.331 865.995 447.234C868.64 450.616 874.614 445.076 874.814 451.669C874.849 452.801 873.103 453.987 871.707 455.151Z" fill="#FBFCFE"/>
<path d="M884.175 385.275C884.914 384.494 885.568 383.991 886.301 383.814C891.556 382.542 896.814 381.273 902.101 380.15C903.682 379.814 905.361 379.945 907.392 379.842C907.392 402.717 907.392 425.247 907.392 448.29C910.167 448.29 912.721 448.29 915.811 448.29C915.976 450.648 916.108 452.538 916.266 454.809C905.888 454.809 895.83 454.809 884.215 454.809C885.693 452.604 886.404 450.236 887.672 449.887C892.313 448.608 893.774 445.115 893.825 441.229C894.043 424.454 893.918 407.676 893.918 391.083C890.916 388.494 883.254 395.015 884.175 385.275Z" fill="#F8F9FD"/>
<path d="M1144.15 437.799C1144.33 422.012 1144.49 406.698 1144.64 391.385C1144.64 391.253 1144.45 391.12 1144.13 390.689C1141.44 390.689 1138.51 390.689 1134.97 390.689C1134.82 388.595 1134.68 386.553 1134.55 384.713C1142.37 383.011 1149.78 381.397 1157.8 379.653C1157.8 402.981 1157.8 425.564 1157.8 448.193C1161.7 449.267 1168.63 445.918 1166.13 454.787C1156.36 454.787 1146.47 454.787 1135.47 454.787C1136.15 453.005 1136.46 450.291 1137.39 450.06C1143.97 448.424 1143.98 443.372 1144.15 437.799Z" fill="#F6F8FD"/>
<path d="M900.134 347.82C902.679 348.824 905.427 349.371 906.84 351.046C909.789 354.54 910.188 359.093 906.854 362.341C904.821 364.321 901.025 365.807 898.293 365.448C894.167 364.905 892.046 361.06 892.198 356.918C892.37 352.234 894.616 348.715 900.134 347.82Z" fill="#F9FAFE"/>
<path d="M1143.16 353.301C1146.57 348.17 1150.55 346.599 1154.46 348.55C1158.03 350.33 1160.06 355.393 1158.68 359.726C1157.39 363.756 1154.55 366.216 1150.19 365.89C1145.87 365.566 1143.34 362.884 1142.83 358.567C1142.64 356.957 1142.94 355.29 1143.16 353.301Z" fill="#F7F8FD"/>
</g>
<defs>
<clipPath id="clip0_120_47">
<rect width="2560" height="500" fill="white"/>
</clipPath>
</defs>
</svg>
