<svg width="18" height="18" viewBox="0 0 18 18" fill="none" xmlns="http://www.w3.org/2000/svg">
<path d="M10.6317 9L17.6617 1.96993C18.1126 1.51912 18.1128 0.789171 17.6618 0.338256C17.2109 -0.112694 16.481 -0.112799 16.0301 0.338221L9 7.36829L1.96993 0.338256C1.51913 -0.112658 0.78914 -0.112799 0.338226 0.338186C-0.112724 0.789101 -0.112759 1.51895 0.338226 1.9699L7.36822 9L0.33819 16.03C-0.111705 16.4799 -0.111705 17.2119 0.33819 17.6617C0.78907 18.1127 1.51898 18.1128 1.9699 17.6617L8.99993 10.6316L16.03 17.6617C16.4808 18.1126 17.2108 18.1127 17.6616 17.6617C18.1126 17.2108 18.1127 16.4809 17.6617 16.0299L10.6317 9Z" fill="#3A3A3C"/>
</svg>
