<?xml version="1.0" standalone="no"?>
<!DOCTYPE svg PUBLIC "-//W3C//DTD SVG 20010904//EN"
 "http://www.w3.org/TR/2001/REC-SVG-20010904/DTD/svg10.dtd">
<svg version="1.0" xmlns="http://www.w3.org/2000/svg"
 width="256.000000pt" height="256.000000pt" viewBox="0 0 256.000000 256.000000"
 preserveAspectRatio="xMidYMid meet">
<metadata>
Created by potrace 1.16, written by Peter Selinger 2001-2019
</metadata>
<g transform="translate(0.000000,256.000000) scale(0.100000,-0.100000)"
fill="#000000" stroke="none">
<path d="M0 1280 l0 -1280 1280 0 1280 0 0 1280 0 1280 -1280 0 -1280 0 0
-1280z m2037 423 c203 -285 377 -529 386 -543 15 -24 11 -36 -156 -415 l-172
-390 -165 -6 c-91 -4 -460 -8 -820 -10 l-655 -3 -42 105 c-24 57 -99 247 -168
423 l-126 318 168 222 c92 121 188 247 213 279 l45 58 550 239 c303 131 555
239 561 239 7 1 178 -232 381 -516z"/>
<path d="M1095 1876 l-490 -213 -188 -246 -188 -247 19 -53 c63 -165 255 -643
262 -650 6 -7 938 562 972 592 3 3 20 141 37 306 18 165 41 385 52 488 11 103
19 199 17 212 -3 23 -19 17 -493 -189z"/>
<path d="M1680 2014 c0 -12 -14 -156 -30 -320 -57 -559 -61 -597 -58 -600 7
-6 678 101 678 108 0 8 -552 792 -576 818 -12 12 -14 12 -14 -6z"/>
<path d="M2025 1061 c-132 -21 -292 -46 -356 -55 l-116 -18 -434 -269 c-238
-148 -437 -273 -442 -278 -7 -7 233 -8 669 -4 373 3 682 8 685 12 8 8 279 634
279 644 0 11 -26 8 -285 -32z"/>
</g>
</svg>
