<svg width="720" height="900" viewBox="0 0 720 900" fill="none" xmlns="http://www.w3.org/2000/svg">
<g clip-path="url(#clip0_2232_3270)">
<rect width="720" height="900" fill="#3A3A3C"/>
<path d="M209.954 736.668C199.326 736.74 189.183 736.594 179.061 736.987C174.882 737.149 173.002 735.772 171.486 731.905C148.262 672.663 124.957 613.452 101.381 554.349C99.1923 548.864 99.4736 545.292 103.176 540.487C132.635 502.264 161.709 463.746 191.026 425.413C192.639 423.304 195.126 421.512 197.587 420.445C277.849 385.613 358.158 350.889 438.458 316.146C440.72 315.167 442.961 314.141 445.517 313C456.239 327.98 466.934 342.919 477.625 357.861C524.037 422.732 570.417 487.626 616.945 552.414C619.42 555.86 619.568 558.436 617.879 562.226C593.184 617.635 568.613 673.097 544.179 728.62C542.332 732.819 540.191 734.42 535.424 734.447C427.098 735.071 318.773 735.887 209.954 736.668ZM420.276 440.305C423.606 408.06 426.935 375.815 430.353 342.72C427.87 343.671 426.189 344.243 424.565 344.946C353.296 375.85 282.023 406.747 210.801 437.759C208.349 438.827 205.917 440.689 204.303 442.807C178.073 477.234 152.024 511.797 125.769 546.203C123.423 549.277 123.215 551.633 124.613 555.131C142.014 598.673 159.246 642.282 176.531 685.869C179.695 693.846 182.903 701.805 186.325 710.357C188.741 708.924 190.72 707.801 192.651 706.599C262.417 663.216 332.164 619.8 401.989 576.512C405.336 574.437 406.672 572.054 407.056 568.263C411.346 525.901 415.787 483.554 420.276 440.305ZM328.085 714.485C393.193 713.929 458.303 713.347 523.412 712.895C526.901 712.871 528.638 711.842 530.057 708.579C550.218 662.241 570.533 615.969 590.8 569.675C591.44 568.214 591.953 566.699 592.74 564.645C590.717 564.773 589.423 564.758 588.16 564.949C533.988 573.169 479.815 581.385 425.658 589.705C422.779 590.147 419.717 590.966 417.276 592.473C352.884 632.226 288.562 672.09 224.24 711.954C223.127 712.644 222.157 713.562 220.969 714.492C256.754 714.492 291.921 714.492 328.085 714.485ZM503.418 430.308C485.996 405.864 468.573 381.419 451.151 356.974C450.712 357.161 450.273 357.347 449.834 357.534C442.767 427.314 435.699 497.095 428.547 567.713C480.763 559.763 532.15 551.938 584.483 543.971C557.146 505.634 530.495 468.258 503.418 430.308Z" fill="#F8F9FD"/>
<circle cx="360" cy="914" r="360" fill="white" fill-opacity="0.2"/>
<ellipse cy="-168" rx="360" ry="304" fill="white" fill-opacity="0.2"/>
<circle cx="21.5" cy="793.5" r="53.5" fill="white" fill-opacity="0.2"/>
<path d="M119.9 159.7C126.1 161.1 131 164.2 134.6 169C138.3 173.7 140.15 179.1 140.15 185.2C140.15 194.2 137.05 201.25 130.85 206.35C124.65 211.45 115.95 214 104.75 214H52.4V108.25H103.1C113.9 108.25 122.35 110.65 128.45 115.45C134.65 120.25 137.75 127 137.75 135.7C137.75 141.9 136.1 147.1 132.8 151.3C129.6 155.4 125.3 158.2 119.9 159.7ZM81.8 150.25H96.65C104.05 150.25 107.75 147.2 107.75 141.1C107.75 134.8 104.05 131.65 96.65 131.65H81.8V150.25ZM98.9 190.3C106.3 190.3 110 187.2 110 181C110 177.8 109 175.35 107 173.65C105.1 171.95 102.35 171.1 98.75 171.1H81.8V190.3H98.9ZM233.435 170.95C233.435 173.25 233.285 175.55 232.985 177.85H177.335C177.635 182.45 178.885 185.9 181.085 188.2C183.385 190.4 186.285 191.5 189.785 191.5C194.685 191.5 198.185 189.3 200.285 184.9H231.635C230.335 190.7 227.785 195.9 223.985 200.5C220.285 205 215.585 208.55 209.885 211.15C204.185 213.75 197.885 215.05 190.985 215.05C182.685 215.05 175.285 213.3 168.785 209.8C162.385 206.3 157.335 201.3 153.635 194.8C150.035 188.3 148.235 180.65 148.235 171.85C148.235 163.05 150.035 155.45 153.635 149.05C157.235 142.55 162.235 137.55 168.635 134.05C175.135 130.55 182.585 128.8 190.985 128.8C199.285 128.8 206.635 130.5 213.035 133.9C219.435 137.3 224.435 142.2 228.035 148.6C231.635 154.9 233.435 162.35 233.435 170.95ZM203.435 163.6C203.435 160 202.235 157.2 199.835 155.2C197.435 153.1 194.435 152.05 190.835 152.05C187.235 152.05 184.285 153.05 181.985 155.05C179.685 156.95 178.185 159.8 177.485 163.6H203.435ZM240.666 171.85C240.666 163.15 242.216 155.55 245.316 149.05C248.516 142.55 252.866 137.55 258.366 134.05C263.866 130.55 269.966 128.8 276.666 128.8C282.066 128.8 286.866 129.95 291.066 132.25C295.366 134.45 298.716 137.5 301.116 141.4V103H330.666V214H301.116V202.3C298.816 206.2 295.566 209.3 291.366 211.6C287.166 213.9 282.216 215.05 276.516 215.05C269.816 215.05 263.716 213.3 258.216 209.8C252.816 206.3 248.516 201.3 245.316 194.8C242.216 188.2 240.666 180.55 240.666 171.85ZM301.266 171.85C301.266 166.45 299.766 162.2 296.766 159.1C293.866 156 290.266 154.45 285.966 154.45C281.566 154.45 277.916 156 275.016 159.1C272.116 162.1 270.666 166.35 270.666 171.85C270.666 177.25 272.116 181.55 275.016 184.75C277.916 187.85 281.566 189.4 285.966 189.4C290.266 189.4 293.866 187.85 296.766 184.75C299.766 181.65 301.266 177.35 301.266 171.85ZM376.82 144.7C380.12 139.9 384.12 136.1 388.82 133.3C393.52 130.5 398.57 129.1 403.97 129.1V160.45H395.72C389.32 160.45 384.57 161.7 381.47 164.2C378.37 166.7 376.82 171.05 376.82 177.25V214H347.42V129.85H376.82V144.7ZM453.659 215.05C445.259 215.05 437.709 213.3 431.009 209.8C424.409 206.3 419.209 201.3 415.409 194.8C411.609 188.3 409.709 180.65 409.709 171.85C409.709 163.15 411.609 155.55 415.409 149.05C419.309 142.55 424.559 137.55 431.159 134.05C437.859 130.55 445.409 128.8 453.809 128.8C462.209 128.8 469.709 130.55 476.309 134.05C483.009 137.55 488.259 142.55 492.059 149.05C495.959 155.55 497.909 163.15 497.909 171.85C497.909 180.55 495.959 188.2 492.059 194.8C488.259 201.3 483.009 206.3 476.309 209.8C469.609 213.3 462.059 215.05 453.659 215.05ZM453.659 189.55C457.759 189.55 461.159 188.05 463.859 185.05C466.659 181.95 468.059 177.55 468.059 171.85C468.059 166.15 466.659 161.8 463.859 158.8C461.159 155.8 457.809 154.3 453.809 154.3C449.809 154.3 446.459 155.8 443.759 158.8C441.059 161.8 439.709 166.15 439.709 171.85C439.709 177.65 441.009 182.05 443.609 185.05C446.209 188.05 449.559 189.55 453.659 189.55ZM505.071 171.85C505.071 163.15 506.871 155.55 510.471 149.05C514.071 142.55 519.071 137.55 525.471 134.05C531.971 130.55 539.371 128.8 547.671 128.8C558.371 128.8 567.371 131.75 574.671 137.65C581.971 143.45 586.671 151.6 588.771 162.1H557.571C555.771 156.6 552.271 153.85 547.071 153.85C543.371 153.85 540.421 155.4 538.221 158.5C536.121 161.5 535.071 165.95 535.071 171.85C535.071 177.75 536.121 182.25 538.221 185.35C540.421 188.45 543.371 190 547.071 190C552.371 190 555.871 187.25 557.571 181.75H588.771C586.671 192.15 581.971 200.3 574.671 206.2C567.371 212.1 558.371 215.05 547.671 215.05C539.371 215.05 531.971 213.3 525.471 209.8C519.071 206.3 514.071 201.3 510.471 194.8C506.871 188.3 505.071 180.65 505.071 171.85ZM653.634 214L630.384 179.5V214H600.984V103H630.384V162.85L653.634 129.85H688.884L655.734 172.15L689.484 214H653.634Z" fill="#919EAB" fill-opacity="0.2"/>
<path d="M181.08 159.08L173.28 187H166.68L161.44 167.12L155.96 187L149.4 187.04L141.88 159.08H147.88L152.8 180.76L158.48 159.08H164.72L170.08 180.64L175.04 159.08H181.08ZM205.337 175.44C205.337 176.24 205.283 176.96 205.177 177.6H188.977C189.11 179.2 189.67 180.453 190.657 181.36C191.643 182.267 192.857 182.72 194.297 182.72C196.377 182.72 197.857 181.827 198.737 180.04H204.777C204.137 182.173 202.91 183.933 201.097 185.32C199.283 186.68 197.057 187.36 194.417 187.36C192.283 187.36 190.363 186.893 188.657 185.96C186.977 185 185.657 183.653 184.697 181.92C183.763 180.187 183.297 178.187 183.297 175.92C183.297 173.627 183.763 171.613 184.697 169.88C185.63 168.147 186.937 166.813 188.617 165.88C190.297 164.947 192.23 164.48 194.417 164.48C196.523 164.48 198.403 164.933 200.057 165.84C201.737 166.747 203.03 168.04 203.937 169.72C204.87 171.373 205.337 173.28 205.337 175.44ZM199.537 173.84C199.51 172.4 198.99 171.253 197.977 170.4C196.963 169.52 195.723 169.08 194.257 169.08C192.87 169.08 191.697 169.507 190.737 170.36C189.803 171.187 189.23 172.347 189.017 173.84H199.537ZM215.024 157.4V187H209.424V157.4H215.024ZM219.117 175.92C219.117 173.627 219.584 171.627 220.517 169.92C221.45 168.187 222.744 166.853 224.397 165.92C226.05 164.96 227.944 164.48 230.077 164.48C232.824 164.48 235.09 165.173 236.877 166.56C238.69 167.92 239.904 169.84 240.517 172.32H234.477C234.157 171.36 233.61 170.613 232.837 170.08C232.09 169.52 231.157 169.24 230.037 169.24C228.437 169.24 227.17 169.827 226.237 171C225.304 172.147 224.837 173.787 224.837 175.92C224.837 178.027 225.304 179.667 226.237 180.84C227.17 181.987 228.437 182.56 230.037 182.56C232.304 182.56 233.784 181.547 234.477 179.52H240.517C239.904 181.92 238.69 183.827 236.877 185.24C235.064 186.653 232.797 187.36 230.077 187.36C227.944 187.36 226.05 186.893 224.397 185.96C222.744 185 221.45 183.667 220.517 181.96C219.584 180.227 219.117 178.213 219.117 175.92ZM254.459 187.36C252.326 187.36 250.406 186.893 248.699 185.96C246.993 185 245.646 183.653 244.659 181.92C243.699 180.187 243.219 178.187 243.219 175.92C243.219 173.653 243.713 171.653 244.699 169.92C245.713 168.187 247.086 166.853 248.819 165.92C250.553 164.96 252.486 164.48 254.619 164.48C256.753 164.48 258.686 164.96 260.419 165.92C262.153 166.853 263.513 168.187 264.499 169.92C265.513 171.653 266.019 173.653 266.019 175.92C266.019 178.187 265.499 180.187 264.459 181.92C263.446 183.653 262.059 185 260.299 185.96C258.566 186.893 256.619 187.36 254.459 187.36ZM254.459 182.48C255.473 182.48 256.419 182.24 257.299 181.76C258.206 181.253 258.926 180.507 259.459 179.52C259.993 178.533 260.259 177.333 260.259 175.92C260.259 173.813 259.699 172.2 258.579 171.08C257.486 169.933 256.139 169.36 254.539 169.36C252.939 169.36 251.593 169.933 250.499 171.08C249.433 172.2 248.899 173.813 248.899 175.92C248.899 178.027 249.419 179.653 250.459 180.8C251.526 181.92 252.859 182.48 254.459 182.48ZM297.647 164.52C300.367 164.52 302.554 165.36 304.207 167.04C305.887 168.693 306.727 171.013 306.727 174V187H301.127V174.76C301.127 173.027 300.687 171.707 299.807 170.8C298.927 169.867 297.727 169.4 296.207 169.4C294.687 169.4 293.474 169.867 292.567 170.8C291.687 171.707 291.247 173.027 291.247 174.76V187H285.647V174.76C285.647 173.027 285.207 171.707 284.327 170.8C283.447 169.867 282.247 169.4 280.727 169.4C279.181 169.4 277.954 169.867 277.047 170.8C276.167 171.707 275.727 173.027 275.727 174.76V187H270.127V164.84H275.727V167.52C276.447 166.587 277.367 165.853 278.487 165.32C279.634 164.787 280.887 164.52 282.247 164.52C283.981 164.52 285.527 164.893 286.887 165.64C288.247 166.36 289.301 167.4 290.047 168.76C290.767 167.48 291.807 166.453 293.167 165.68C294.554 164.907 296.047 164.52 297.647 164.52ZM332.641 175.44C332.641 176.24 332.588 176.96 332.481 177.6H316.281C316.415 179.2 316.975 180.453 317.961 181.36C318.948 182.267 320.161 182.72 321.601 182.72C323.681 182.72 325.161 181.827 326.041 180.04H332.081C331.441 182.173 330.215 183.933 328.401 185.32C326.588 186.68 324.361 187.36 321.721 187.36C319.588 187.36 317.668 186.893 315.961 185.96C314.281 185 312.961 183.653 312.001 181.92C311.068 180.187 310.601 178.187 310.601 175.92C310.601 173.627 311.068 171.613 312.001 169.88C312.935 168.147 314.241 166.813 315.921 165.88C317.601 164.947 319.535 164.48 321.721 164.48C323.828 164.48 325.708 164.933 327.361 165.84C329.041 166.747 330.335 168.04 331.241 169.72C332.175 171.373 332.641 173.28 332.641 175.44ZM326.841 173.84C326.815 172.4 326.295 171.253 325.281 170.4C324.268 169.52 323.028 169.08 321.561 169.08C320.175 169.08 319.001 169.507 318.041 170.36C317.108 171.187 316.535 172.347 316.321 173.84H326.841ZM365.26 159.08V163.6H357.82V187H352.22V163.6H344.78V159.08H365.26ZM379.186 187.36C377.053 187.36 375.133 186.893 373.426 185.96C371.719 185 370.373 183.653 369.386 181.92C368.426 180.187 367.946 178.187 367.946 175.92C367.946 173.653 368.439 171.653 369.426 169.92C370.439 168.187 371.813 166.853 373.546 165.92C375.279 164.96 377.213 164.48 379.346 164.48C381.479 164.48 383.413 164.96 385.146 165.92C386.879 166.853 388.239 168.187 389.226 169.92C390.239 171.653 390.746 173.653 390.746 175.92C390.746 178.187 390.226 180.187 389.186 181.92C388.173 183.653 386.786 185 385.026 185.96C383.293 186.893 381.346 187.36 379.186 187.36ZM379.186 182.48C380.199 182.48 381.146 182.24 382.026 181.76C382.933 181.253 383.653 180.507 384.186 179.52C384.719 178.533 384.986 177.333 384.986 175.92C384.986 173.813 384.426 172.2 383.306 171.08C382.213 169.933 380.866 169.36 379.266 169.36C377.666 169.36 376.319 169.933 375.226 171.08C374.159 172.2 373.626 173.813 373.626 175.92C373.626 178.027 374.146 179.653 375.186 180.8C376.253 181.92 377.586 182.48 379.186 182.48ZM420.225 172.68C421.798 172.973 423.092 173.76 424.105 175.04C425.118 176.32 425.625 177.787 425.625 179.44C425.625 180.933 425.252 182.253 424.505 183.4C423.785 184.52 422.732 185.4 421.345 186.04C419.958 186.68 418.318 187 416.425 187H404.385V159.08H415.905C417.798 159.08 419.425 159.387 420.785 160C422.172 160.613 423.212 161.467 423.905 162.56C424.625 163.653 424.985 164.893 424.985 166.28C424.985 167.907 424.545 169.267 423.665 170.36C422.812 171.453 421.665 172.227 420.225 172.68ZM409.985 170.6H415.105C416.438 170.6 417.465 170.307 418.185 169.72C418.905 169.107 419.265 168.24 419.265 167.12C419.265 166 418.905 165.133 418.185 164.52C417.465 163.907 416.438 163.6 415.105 163.6H409.985V170.6ZM415.625 182.44C416.985 182.44 418.038 182.12 418.785 181.48C419.558 180.84 419.945 179.933 419.945 178.76C419.945 177.56 419.545 176.627 418.745 175.96C417.945 175.267 416.865 174.92 415.505 174.92H409.985V182.44H415.625ZM450.688 175.44C450.688 176.24 450.635 176.96 450.528 177.6H434.328C434.461 179.2 435.021 180.453 436.008 181.36C436.995 182.267 438.208 182.72 439.648 182.72C441.728 182.72 443.208 181.827 444.088 180.04H450.128C449.488 182.173 448.261 183.933 446.448 185.32C444.635 186.68 442.408 187.36 439.768 187.36C437.635 187.36 435.715 186.893 434.008 185.96C432.328 185 431.008 183.653 430.048 181.92C429.115 180.187 428.648 178.187 428.648 175.92C428.648 173.627 429.115 171.613 430.048 169.88C430.981 168.147 432.288 166.813 433.968 165.88C435.648 164.947 437.581 164.48 439.768 164.48C441.875 164.48 443.755 164.933 445.408 165.84C447.088 166.747 448.381 168.04 449.288 169.72C450.221 171.373 450.688 173.28 450.688 175.44ZM444.888 173.84C444.861 172.4 444.341 171.253 443.328 170.4C442.315 169.52 441.075 169.08 439.608 169.08C438.221 169.08 437.048 169.507 436.088 170.36C435.155 171.187 434.581 172.347 434.368 173.84H444.888ZM453.336 175.84C453.336 173.6 453.776 171.613 454.656 169.88C455.562 168.147 456.789 166.813 458.336 165.88C459.882 164.947 461.602 164.48 463.496 164.48C464.936 164.48 466.309 164.8 467.616 165.44C468.922 166.053 469.962 166.88 470.736 167.92V157.4H476.416V187H470.736V183.72C470.042 184.813 469.069 185.693 467.816 186.36C466.562 187.027 465.109 187.36 463.456 187.36C461.589 187.36 459.882 186.88 458.336 185.92C456.789 184.96 455.562 183.613 454.656 181.88C453.776 180.12 453.336 178.107 453.336 175.84ZM470.776 175.92C470.776 174.56 470.509 173.4 469.976 172.44C469.442 171.453 468.722 170.707 467.816 170.2C466.909 169.667 465.936 169.4 464.896 169.4C463.856 169.4 462.896 169.653 462.016 170.16C461.136 170.667 460.416 171.413 459.856 172.4C459.322 173.36 459.056 174.507 459.056 175.84C459.056 177.173 459.322 178.347 459.856 179.36C460.416 180.347 461.136 181.107 462.016 181.64C462.922 182.173 463.882 182.44 464.896 182.44C465.936 182.44 466.909 182.187 467.816 181.68C468.722 181.147 469.442 180.4 469.976 179.44C470.509 178.453 470.776 177.28 470.776 175.92ZM496.285 187L490.125 176.12H487.485V187H481.885V159.08H492.365C494.525 159.08 496.365 159.467 497.885 160.24C499.405 160.987 500.538 162.013 501.285 163.32C502.058 164.6 502.445 166.04 502.445 167.64C502.445 169.48 501.912 171.147 500.845 172.64C499.778 174.107 498.192 175.12 496.085 175.68L502.765 187H496.285ZM487.485 171.92H492.165C493.685 171.92 494.818 171.56 495.565 170.84C496.312 170.093 496.685 169.067 496.685 167.76C496.685 166.48 496.312 165.493 495.565 164.8C494.818 164.08 493.685 163.72 492.165 163.72H487.485V171.92ZM517.35 187.36C515.217 187.36 513.297 186.893 511.59 185.96C509.883 185 508.537 183.653 507.55 181.92C506.59 180.187 506.11 178.187 506.11 175.92C506.11 173.653 506.603 171.653 507.59 169.92C508.603 168.187 509.977 166.853 511.71 165.92C513.443 164.96 515.377 164.48 517.51 164.48C519.643 164.48 521.577 164.96 523.31 165.92C525.043 166.853 526.403 168.187 527.39 169.92C528.403 171.653 528.91 173.653 528.91 175.92C528.91 178.187 528.39 180.187 527.35 181.92C526.337 183.653 524.95 185 523.19 185.96C521.457 186.893 519.51 187.36 517.35 187.36ZM517.35 182.48C518.363 182.48 519.31 182.24 520.19 181.76C521.097 181.253 521.817 180.507 522.35 179.52C522.883 178.533 523.15 177.333 523.15 175.92C523.15 173.813 522.59 172.2 521.47 171.08C520.377 169.933 519.03 169.36 517.43 169.36C515.83 169.36 514.483 169.933 513.39 171.08C512.323 172.2 511.79 173.813 511.79 175.92C511.79 178.027 512.31 179.653 513.35 180.8C514.417 181.92 515.75 182.48 517.35 182.48ZM531.578 175.92C531.578 173.627 532.044 171.627 532.978 169.92C533.911 168.187 535.204 166.853 536.858 165.92C538.511 164.96 540.404 164.48 542.538 164.48C545.284 164.48 547.551 165.173 549.338 166.56C551.151 167.92 552.364 169.84 552.978 172.32H546.938C546.618 171.36 546.071 170.613 545.298 170.08C544.551 169.52 543.618 169.24 542.498 169.24C540.898 169.24 539.631 169.827 538.698 171C537.764 172.147 537.298 173.787 537.298 175.92C537.298 178.027 537.764 179.667 538.698 180.84C539.631 181.987 540.898 182.56 542.498 182.56C544.764 182.56 546.244 181.547 546.938 179.52H552.978C552.364 181.92 551.151 183.827 549.338 185.24C547.524 186.653 545.258 187.36 542.538 187.36C540.404 187.36 538.511 186.893 536.858 185.96C535.204 185 533.911 183.667 532.978 181.96C532.044 180.227 531.578 178.213 531.578 175.92ZM570.2 187L562.68 177.56V187H557.08V157.4H562.68V174.24L570.12 164.84H577.4L567.64 175.96L577.48 187H570.2ZM597.211 158.6L596.571 177.92H591.851L591.171 158.6H597.211ZM594.331 187.28C593.318 187.28 592.478 186.973 591.811 186.36C591.171 185.72 590.851 184.933 590.851 184C590.851 183.067 591.171 182.293 591.811 181.68C592.478 181.04 593.318 180.72 594.331 180.72C595.318 180.72 596.131 181.04 596.771 181.68C597.411 182.293 597.731 183.067 597.731 184C597.731 184.933 597.411 185.72 596.771 186.36C596.131 186.973 595.318 187.28 594.331 187.28Z" fill="white"/>
</g>
<defs>
<clipPath id="clip0_2232_3270">
<rect width="1080" height="1746" fill="white" transform="translate(-360 -472)"/>
</clipPath>
</defs>
</svg>
