<svg width="179" height="114" viewBox="0 0 179 114" fill="none" xmlns="http://www.w3.org/2000/svg">
<rect width="179" height="114" fill="#EBEBEF"/>
<path d="M41.3723 32.384C41.3723 33.0347 41.223 33.632 40.9243 34.176C40.6256 34.7093 40.167 35.1413 39.5483 35.472C38.9296 35.8027 38.1616 35.968 37.2443 35.968H35.5483V40H32.8123V28.768H37.2443C38.1403 28.768 38.8976 28.9227 39.5163 29.232C40.135 29.5413 40.599 29.968 40.9083 30.512C41.2176 31.056 41.3723 31.68 41.3723 32.384ZM37.0363 33.792C37.559 33.792 37.9483 33.6693 38.2043 33.424C38.4603 33.1787 38.5883 32.832 38.5883 32.384C38.5883 31.936 38.4603 31.5893 38.2043 31.344C37.9483 31.0987 37.559 30.976 37.0363 30.976H35.5483V33.792H37.0363ZM45.5327 28.16V40H42.7967V28.16H45.5327ZM55.9314 35.392C55.9314 35.648 55.9154 35.9147 55.8834 36.192H49.6914C49.7341 36.7467 49.9101 37.1733 50.2194 37.472C50.5394 37.76 50.9288 37.904 51.3874 37.904C52.0701 37.904 52.5448 37.616 52.8114 37.04H55.7234C55.5741 37.6267 55.3021 38.1547 54.9074 38.624C54.5234 39.0933 54.0381 39.4613 53.4514 39.728C52.8648 39.9947 52.2088 40.128 51.4834 40.128C50.6088 40.128 49.8301 39.9413 49.1474 39.568C48.4648 39.1947 47.9314 38.6613 47.5474 37.968C47.1634 37.2747 46.9714 36.464 46.9714 35.536C46.9714 34.608 47.1581 33.7973 47.5314 33.104C47.9154 32.4107 48.4488 31.8773 49.1314 31.504C49.8141 31.1307 50.5981 30.944 51.4834 30.944C52.3474 30.944 53.1154 31.1253 53.7874 31.488C54.4594 31.8507 54.9821 32.368 55.3554 33.04C55.7394 33.712 55.9314 34.496 55.9314 35.392ZM53.1314 34.672C53.1314 34.2027 52.9714 33.8293 52.6514 33.552C52.3314 33.2747 51.9314 33.136 51.4514 33.136C50.9928 33.136 50.6034 33.2693 50.2834 33.536C49.9741 33.8027 49.7821 34.1813 49.7074 34.672H53.1314ZM56.8308 35.52C56.8308 34.6027 57.0015 33.7973 57.3428 33.104C57.6948 32.4107 58.1695 31.8773 58.7668 31.504C59.3641 31.1307 60.0308 30.944 60.7668 30.944C61.3961 30.944 61.9455 31.072 62.4148 31.328C62.8948 31.584 63.2628 31.92 63.5188 32.336V31.072H66.2548V40H63.5188V38.736C63.2521 39.152 62.8788 39.488 62.3988 39.744C61.9295 40 61.3801 40.128 60.7508 40.128C60.0255 40.128 59.3641 39.9413 58.7668 39.568C58.1695 39.184 57.6948 38.6453 57.3428 37.952C57.0015 37.248 56.8308 36.4373 56.8308 35.52ZM63.5188 35.536C63.5188 34.8533 63.3268 34.3147 62.9428 33.92C62.5695 33.5253 62.1108 33.328 61.5668 33.328C61.0228 33.328 60.5588 33.5253 60.1748 33.92C59.8015 34.304 59.6148 34.8373 59.6148 35.52C59.6148 36.2027 59.8015 36.7467 60.1748 37.152C60.5588 37.5467 61.0228 37.744 61.5668 37.744C62.1108 37.744 62.5695 37.5467 62.9428 37.152C63.3268 36.7573 63.5188 36.2187 63.5188 35.536ZM71.8662 40.128C71.0875 40.128 70.3942 39.9947 69.7862 39.728C69.1782 39.4613 68.6982 39.0987 68.3462 38.64C67.9942 38.1707 67.7969 37.648 67.7542 37.072H70.4582C70.4902 37.3813 70.6342 37.632 70.8902 37.824C71.1462 38.016 71.4609 38.112 71.8342 38.112C72.1755 38.112 72.4369 38.048 72.6182 37.92C72.8102 37.7813 72.9062 37.6053 72.9062 37.392C72.9062 37.136 72.7729 36.9493 72.5062 36.832C72.2395 36.704 71.8075 36.5653 71.2102 36.416C70.5702 36.2667 70.0369 36.112 69.6102 35.952C69.1835 35.7813 68.8155 35.52 68.5062 35.168C68.1969 34.8053 68.0422 34.32 68.0422 33.712C68.0422 33.2 68.1809 32.736 68.4582 32.32C68.7462 31.8933 69.1622 31.5573 69.7062 31.312C70.2609 31.0667 70.9169 30.944 71.6742 30.944C72.7942 30.944 73.6742 31.2213 74.3142 31.776C74.9649 32.3307 75.3382 33.0667 75.4342 33.984H72.9062C72.8635 33.6747 72.7249 33.4293 72.4902 33.248C72.2662 33.0667 71.9675 32.976 71.5942 32.976C71.2742 32.976 71.0289 33.04 70.8582 33.168C70.6875 33.2853 70.6022 33.4507 70.6022 33.664C70.6022 33.92 70.7355 34.112 71.0022 34.24C71.2795 34.368 71.7062 34.496 72.2822 34.624C72.9435 34.7947 73.4822 34.9653 73.8982 35.136C74.3142 35.296 74.6769 35.5627 74.9862 35.936C75.3062 36.2987 75.4715 36.7893 75.4822 37.408C75.4822 37.9307 75.3329 38.4 75.0342 38.816C74.7462 39.2213 74.3249 39.5413 73.7702 39.776C73.2262 40.0107 72.5915 40.128 71.8662 40.128ZM85.5721 35.392C85.5721 35.648 85.5561 35.9147 85.5241 36.192H79.3321C79.3747 36.7467 79.5507 37.1733 79.8601 37.472C80.1801 37.76 80.5694 37.904 81.0281 37.904C81.7107 37.904 82.1854 37.616 82.4521 37.04H85.3641C85.2147 37.6267 84.9427 38.1547 84.5481 38.624C84.1641 39.0933 83.6787 39.4613 83.0921 39.728C82.5054 39.9947 81.8494 40.128 81.1241 40.128C80.2494 40.128 79.4707 39.9413 78.7881 39.568C78.1054 39.1947 77.5721 38.6613 77.1881 37.968C76.8041 37.2747 76.6121 36.464 76.6121 35.536C76.6121 34.608 76.7987 33.7973 77.1721 33.104C77.5561 32.4107 78.0894 31.8773 78.7721 31.504C79.4547 31.1307 80.2387 30.944 81.1241 30.944C81.9881 30.944 82.7561 31.1253 83.4281 31.488C84.1001 31.8507 84.6227 32.368 84.9961 33.04C85.3801 33.712 85.5721 34.496 85.5721 35.392ZM82.7721 34.672C82.7721 34.2027 82.6121 33.8293 82.2921 33.552C81.9721 33.2747 81.5721 33.136 81.0921 33.136C80.6334 33.136 80.2441 33.2693 79.9241 33.536C79.6147 33.8027 79.4227 34.1813 79.3481 34.672H82.7721ZM93.0941 28.768V35.488C93.0941 36.16 93.2594 36.6773 93.5901 37.04C93.9207 37.4027 94.4061 37.584 95.0461 37.584C95.6861 37.584 96.1767 37.4027 96.5181 37.04C96.8594 36.6773 97.0301 36.16 97.0301 35.488V28.768H99.7661V35.472C99.7661 36.4747 99.5527 37.3227 99.1261 38.016C98.6994 38.7093 98.1234 39.232 97.3981 39.584C96.6834 39.936 95.8834 40.112 94.9981 40.112C94.1127 40.112 93.3181 39.9413 92.6141 39.6C91.9207 39.248 91.3714 38.7253 90.9661 38.032C90.5607 37.328 90.3581 36.4747 90.3581 35.472V28.768H93.0941ZM104.423 32.336C104.69 31.92 105.058 31.584 105.527 31.328C105.997 31.072 106.546 30.944 107.175 30.944C107.911 30.944 108.578 31.1307 109.175 31.504C109.773 31.8773 110.242 32.4107 110.583 33.104C110.935 33.7973 111.111 34.6027 111.111 35.52C111.111 36.4373 110.935 37.248 110.583 37.952C110.242 38.6453 109.773 39.184 109.175 39.568C108.578 39.9413 107.911 40.128 107.175 40.128C106.557 40.128 106.007 40 105.527 39.744C105.058 39.488 104.69 39.1573 104.423 38.752V44.256H101.687V31.072H104.423V32.336ZM108.327 35.52C108.327 34.8373 108.135 34.304 107.751 33.92C107.378 33.5253 106.914 33.328 106.359 33.328C105.815 33.328 105.351 33.5253 104.967 33.92C104.594 34.3147 104.407 34.8533 104.407 35.536C104.407 36.2187 104.594 36.7573 104.967 37.152C105.351 37.5467 105.815 37.744 106.359 37.744C106.903 37.744 107.367 37.5467 107.751 37.152C108.135 36.7467 108.327 36.2027 108.327 35.52ZM115.283 28.16V40H112.547V28.16H115.283ZM121.329 40.128C120.455 40.128 119.665 39.9413 118.961 39.568C118.268 39.1947 117.719 38.6613 117.313 37.968C116.919 37.2747 116.721 36.464 116.721 35.536C116.721 34.6187 116.924 33.8133 117.329 33.12C117.735 32.416 118.289 31.8773 118.993 31.504C119.697 31.1307 120.487 30.944 121.361 30.944C122.236 30.944 123.025 31.1307 123.729 31.504C124.433 31.8773 124.988 32.416 125.393 33.12C125.799 33.8133 126.001 34.6187 126.001 35.536C126.001 36.4533 125.793 37.264 125.377 37.968C124.972 38.6613 124.412 39.1947 123.697 39.568C122.993 39.9413 122.204 40.128 121.329 40.128ZM121.329 37.76C121.852 37.76 122.295 37.568 122.657 37.184C123.031 36.8 123.217 36.2507 123.217 35.536C123.217 34.8213 123.036 34.272 122.673 33.888C122.321 33.504 121.884 33.312 121.361 33.312C120.828 33.312 120.385 33.504 120.033 33.888C119.681 34.2613 119.505 34.8107 119.505 35.536C119.505 36.2507 119.676 36.8 120.017 37.184C120.369 37.568 120.807 37.76 121.329 37.76ZM126.909 35.52C126.909 34.6027 127.08 33.7973 127.421 33.104C127.773 32.4107 128.248 31.8773 128.845 31.504C129.442 31.1307 130.109 30.944 130.845 30.944C131.474 30.944 132.024 31.072 132.493 31.328C132.973 31.584 133.341 31.92 133.597 32.336V31.072H136.333V40H133.597V38.736C133.33 39.152 132.957 39.488 132.477 39.744C132.008 40 131.458 40.128 130.829 40.128C130.104 40.128 129.442 39.9413 128.845 39.568C128.248 39.184 127.773 38.6453 127.421 37.952C127.08 37.248 126.909 36.4373 126.909 35.52ZM133.597 35.536C133.597 34.8533 133.405 34.3147 133.021 33.92C132.648 33.5253 132.189 33.328 131.645 33.328C131.101 33.328 130.637 33.5253 130.253 33.92C129.88 34.304 129.693 34.8373 129.693 35.52C129.693 36.2027 129.88 36.7467 130.253 37.152C130.637 37.5467 131.101 37.744 131.645 37.744C132.189 37.744 132.648 37.5467 133.021 37.152C133.405 36.7573 133.597 36.2187 133.597 35.536ZM137.768 35.52C137.768 34.6027 137.939 33.7973 138.28 33.104C138.632 32.4107 139.107 31.8773 139.704 31.504C140.302 31.1307 140.968 30.944 141.704 30.944C142.291 30.944 142.824 31.0667 143.304 31.312C143.795 31.5573 144.179 31.888 144.456 32.304V28.16H147.192V40H144.456V38.72C144.2 39.1467 143.832 39.488 143.352 39.744C142.883 40 142.334 40.128 141.704 40.128C140.968 40.128 140.302 39.9413 139.704 39.568C139.107 39.184 138.632 38.6453 138.28 37.952C137.939 37.248 137.768 36.4373 137.768 35.52ZM144.456 35.536C144.456 34.8533 144.264 34.3147 143.88 33.92C143.507 33.5253 143.048 33.328 142.504 33.328C141.96 33.328 141.496 33.5253 141.112 33.92C140.739 34.304 140.552 34.8373 140.552 35.52C140.552 36.2027 140.739 36.7467 141.112 37.152C141.496 37.5467 141.96 37.744 142.504 37.744C143.048 37.744 143.507 37.5467 143.88 37.152C144.264 36.7573 144.456 36.2187 144.456 35.536ZM81.1511 55.072L75.5511 68.24H72.6071L74.6551 63.696L71.0231 55.072H74.0791L76.1431 60.656L78.1911 55.072H81.1511ZM86.2044 64.128C85.3298 64.128 84.5404 63.9413 83.8364 63.568C83.1431 63.1947 82.5938 62.6613 82.1884 61.968C81.7938 61.2747 81.5964 60.464 81.5964 59.536C81.5964 58.6187 81.7991 57.8133 82.2044 57.12C82.6098 56.416 83.1644 55.8773 83.8684 55.504C84.5724 55.1307 85.3618 54.944 86.2364 54.944C87.1111 54.944 87.9004 55.1307 88.6044 55.504C89.3084 55.8773 89.8631 56.416 90.2684 57.12C90.6738 57.8133 90.8764 58.6187 90.8764 59.536C90.8764 60.4533 90.6684 61.264 90.2524 61.968C89.8471 62.6613 89.2871 63.1947 88.5724 63.568C87.8684 63.9413 87.0791 64.128 86.2044 64.128ZM86.2044 61.76C86.7271 61.76 87.1698 61.568 87.5324 61.184C87.9058 60.8 88.0924 60.2507 88.0924 59.536C88.0924 58.8213 87.9111 58.272 87.5484 57.888C87.1964 57.504 86.7591 57.312 86.2364 57.312C85.7031 57.312 85.2604 57.504 84.9084 57.888C84.5564 58.2613 84.3804 58.8107 84.3804 59.536C84.3804 60.2507 84.5511 60.8 84.8924 61.184C85.2444 61.568 85.6818 61.76 86.2044 61.76ZM101.144 55.072V64H98.4079V62.784C98.1306 63.1787 97.7519 63.4987 97.2719 63.744C96.8026 63.9787 96.2799 64.096 95.7039 64.096C95.0213 64.096 94.4186 63.9467 93.8959 63.648C93.3733 63.3387 92.9679 62.896 92.6799 62.32C92.3919 61.744 92.2479 61.0667 92.2479 60.288V55.072H94.9679V59.92C94.9679 60.5173 95.1226 60.9813 95.4319 61.312C95.7413 61.6427 96.1573 61.808 96.6799 61.808C97.2133 61.808 97.6346 61.6427 97.9439 61.312C98.2533 60.9813 98.4079 60.5173 98.4079 59.92V55.072H101.144ZM105.845 56.56C106.165 56.0693 106.565 55.6853 107.045 55.408C107.525 55.12 108.059 54.976 108.645 54.976V57.872H107.893C107.211 57.872 106.699 58.0213 106.357 58.32C106.016 58.608 105.845 59.12 105.845 59.856V64H103.109V55.072H105.845V56.56ZM33.7044 88.112C32.8831 88.112 32.1471 87.9787 31.4964 87.712C30.8458 87.4453 30.3231 87.0507 29.9284 86.528C29.5444 86.0053 29.3418 85.376 29.3204 84.64H32.2324C32.2751 85.056 32.4191 85.376 32.6644 85.6C32.9098 85.8133 33.2298 85.92 33.6244 85.92C34.0298 85.92 34.3498 85.8293 34.5844 85.648C34.8191 85.456 34.9364 85.1947 34.9364 84.864C34.9364 84.5867 34.8404 84.3573 34.6484 84.176C34.4671 83.9947 34.2378 83.8453 33.9604 83.728C33.6938 83.6107 33.3098 83.4773 32.8084 83.328C32.0831 83.104 31.4911 82.88 31.0324 82.656C30.5738 82.432 30.1791 82.1013 29.8484 81.664C29.5178 81.2267 29.3524 80.656 29.3524 79.952C29.3524 78.9067 29.7311 78.0907 30.4884 77.504C31.2458 76.9067 32.2324 76.608 33.4484 76.608C34.6858 76.608 35.6831 76.9067 36.4404 77.504C37.1978 78.0907 37.6031 78.912 37.6564 79.968H34.6964C34.6751 79.6053 34.5418 79.3227 34.2964 79.12C34.0511 78.9067 33.7364 78.8 33.3524 78.8C33.0218 78.8 32.7551 78.8907 32.5524 79.072C32.3498 79.2427 32.2484 79.4933 32.2484 79.824C32.2484 80.1867 32.4191 80.4693 32.7604 80.672C33.1018 80.8747 33.6351 81.0933 34.3604 81.328C35.0858 81.5733 35.6724 81.808 36.1204 82.032C36.5791 82.256 36.9738 82.5813 37.3044 83.008C37.6351 83.4347 37.8004 83.984 37.8004 84.656C37.8004 85.296 37.6351 85.8773 37.3044 86.4C36.9844 86.9227 36.5151 87.3387 35.8964 87.648C35.2778 87.9573 34.5471 88.112 33.7044 88.112ZM40.8602 78.144C40.3802 78.144 39.9855 78.0053 39.6762 77.728C39.3775 77.44 39.2282 77.088 39.2282 76.672C39.2282 76.2453 39.3775 75.8933 39.6762 75.616C39.9855 75.328 40.3802 75.184 40.8602 75.184C41.3295 75.184 41.7135 75.328 42.0122 75.616C42.3215 75.8933 42.4762 76.2453 42.4762 76.672C42.4762 77.088 42.3215 77.44 42.0122 77.728C41.7135 78.0053 41.3295 78.144 40.8602 78.144ZM42.2202 79.072V88H39.4842V79.072H42.2202ZM47.5949 78.944C48.2243 78.944 48.7736 79.072 49.2429 79.328C49.7229 79.584 50.0909 79.92 50.3469 80.336V79.072H53.0829V87.984C53.0829 88.8053 52.9176 89.5467 52.5869 90.208C52.2669 90.88 51.7709 91.4133 51.0989 91.808C50.4376 92.2027 49.6109 92.4 48.6189 92.4C47.2963 92.4 46.2243 92.0853 45.4029 91.456C44.5816 90.8373 44.1123 89.9947 43.9949 88.928H46.6989C46.7843 89.2693 46.9869 89.536 47.3069 89.728C47.6269 89.9307 48.0216 90.032 48.4909 90.032C49.0563 90.032 49.5043 89.8667 49.8349 89.536C50.1763 89.216 50.3469 88.6987 50.3469 87.984V86.72C50.0803 87.136 49.7123 87.4773 49.2429 87.744C48.7736 88 48.2243 88.128 47.5949 88.128C46.8589 88.128 46.1923 87.9413 45.5949 87.568C44.9976 87.184 44.5229 86.6453 44.1709 85.952C43.8296 85.248 43.6589 84.4373 43.6589 83.52C43.6589 82.6027 43.8296 81.7973 44.1709 81.104C44.5229 80.4107 44.9976 79.8773 45.5949 79.504C46.1923 79.1307 46.8589 78.944 47.5949 78.944ZM50.3469 83.536C50.3469 82.8533 50.1549 82.3147 49.7709 81.92C49.3976 81.5253 48.9389 81.328 48.3949 81.328C47.8509 81.328 47.3869 81.5253 47.0029 81.92C46.6296 82.304 46.4429 82.8373 46.4429 83.52C46.4429 84.2027 46.6296 84.7467 47.0029 85.152C47.3869 85.5467 47.8509 85.744 48.3949 85.744C48.9389 85.744 49.3976 85.5467 49.7709 85.152C50.1549 84.7573 50.3469 84.2187 50.3469 83.536ZM60.5023 78.976C61.5476 78.976 62.3796 79.3173 62.9983 80C63.6276 80.672 63.9423 81.6 63.9423 82.784V88H61.2223V83.152C61.2223 82.5547 61.0676 82.0907 60.7583 81.76C60.449 81.4293 60.033 81.264 59.5103 81.264C58.9876 81.264 58.5716 81.4293 58.2623 81.76C57.953 82.0907 57.7983 82.5547 57.7983 83.152V88H55.0623V79.072H57.7983V80.256C58.0756 79.8613 58.449 79.552 58.9183 79.328C59.3876 79.0933 59.9156 78.976 60.5023 78.976ZM65.2996 83.52C65.2996 82.6027 65.4702 81.7973 65.8116 81.104C66.1636 80.4107 66.6382 79.8773 67.2356 79.504C67.8329 79.1307 68.4996 78.944 69.2356 78.944C69.8649 78.944 70.4142 79.072 70.8836 79.328C71.3636 79.584 71.7316 79.92 71.9876 80.336V79.072H74.7236V88H71.9876V86.736C71.7209 87.152 71.3476 87.488 70.8676 87.744C70.3982 88 69.8489 88.128 69.2196 88.128C68.4942 88.128 67.8329 87.9413 67.2356 87.568C66.6382 87.184 66.1636 86.6453 65.8116 85.952C65.4702 85.248 65.2996 84.4373 65.2996 83.52ZM71.9876 83.536C71.9876 82.8533 71.7956 82.3147 71.4116 81.92C71.0382 81.5253 70.5796 81.328 70.0356 81.328C69.4916 81.328 69.0276 81.5253 68.6436 81.92C68.2702 82.304 68.0836 82.8373 68.0836 83.52C68.0836 84.2027 68.2702 84.7467 68.6436 85.152C69.0276 85.5467 69.4916 85.744 70.0356 85.744C70.5796 85.744 71.0382 85.5467 71.4116 85.152C71.7956 84.7573 71.9876 84.2187 71.9876 83.536ZM81.6789 85.68V88H80.2869C79.2949 88 78.5216 87.76 77.9669 87.28C77.4123 86.7893 77.1349 85.9947 77.1349 84.896V81.344H76.0469V79.072H77.1349V76.896H79.8709V79.072H81.6629V81.344H79.8709V84.928C79.8709 85.1947 79.9349 85.3867 80.0629 85.504C80.1909 85.6213 80.4043 85.68 80.7029 85.68H81.6789ZM92.0189 79.072V88H89.2829V86.784C89.0056 87.1787 88.6269 87.4987 88.1469 87.744C87.6776 87.9787 87.1549 88.096 86.5789 88.096C85.8963 88.096 85.2936 87.9467 84.7709 87.648C84.2483 87.3387 83.8429 86.896 83.5549 86.32C83.2669 85.744 83.1229 85.0667 83.1229 84.288V79.072H85.8429V83.92C85.8429 84.5173 85.9976 84.9813 86.3069 85.312C86.6163 85.6427 87.0323 85.808 87.5549 85.808C88.0883 85.808 88.5096 85.6427 88.8189 85.312C89.1283 84.9813 89.2829 84.5173 89.2829 83.92V79.072H92.0189ZM96.7202 80.56C97.0402 80.0693 97.4402 79.6853 97.9202 79.408C98.4002 79.12 98.9335 78.976 99.5202 78.976V81.872H98.7682C98.0855 81.872 97.5735 82.0213 97.2322 82.32C96.8909 82.608 96.7202 83.12 96.7202 83.856V88H93.9842V79.072H96.7202V80.56ZM109.244 83.392C109.244 83.648 109.228 83.9147 109.196 84.192H103.004C103.047 84.7467 103.223 85.1733 103.532 85.472C103.852 85.76 104.241 85.904 104.7 85.904C105.383 85.904 105.857 85.616 106.124 85.04H109.036C108.887 85.6267 108.615 86.1547 108.22 86.624C107.836 87.0933 107.351 87.4613 106.764 87.728C106.177 87.9947 105.521 88.128 104.796 88.128C103.921 88.128 103.143 87.9413 102.46 87.568C101.777 87.1947 101.244 86.6613 100.86 85.968C100.476 85.2747 100.284 84.464 100.284 83.536C100.284 82.608 100.471 81.7973 100.844 81.104C101.228 80.4107 101.761 79.8773 102.444 79.504C103.127 79.1307 103.911 78.944 104.796 78.944C105.66 78.944 106.428 79.1253 107.1 79.488C107.772 79.8507 108.295 80.368 108.668 81.04C109.052 81.712 109.244 82.496 109.244 83.392ZM106.444 82.672C106.444 82.2027 106.284 81.8293 105.964 81.552C105.644 81.2747 105.244 81.136 104.764 81.136C104.305 81.136 103.916 81.2693 103.596 81.536C103.287 81.8027 103.095 82.1813 103.02 82.672H106.444ZM123.806 76.768V88H121.07V83.376H116.814V88H114.078V76.768H116.814V81.168H121.07V76.768H123.806ZM134.197 83.392C134.197 83.648 134.181 83.9147 134.149 84.192H127.957C128 84.7467 128.176 85.1733 128.485 85.472C128.805 85.76 129.194 85.904 129.653 85.904C130.336 85.904 130.81 85.616 131.077 85.04H133.989C133.84 85.6267 133.568 86.1547 133.173 86.624C132.789 87.0933 132.304 87.4613 131.717 87.728C131.13 87.9947 130.474 88.128 129.749 88.128C128.874 88.128 128.096 87.9413 127.413 87.568C126.73 87.1947 126.197 86.6613 125.813 85.968C125.429 85.2747 125.237 84.464 125.237 83.536C125.237 82.608 125.424 81.7973 125.797 81.104C126.181 80.4107 126.714 79.8773 127.397 79.504C128.08 79.1307 128.864 78.944 129.749 78.944C130.613 78.944 131.381 79.1253 132.053 79.488C132.725 79.8507 133.248 80.368 133.621 81.04C134.005 81.712 134.197 82.496 134.197 83.392ZM131.397 82.672C131.397 82.2027 131.237 81.8293 130.917 81.552C130.597 81.2747 130.197 81.136 129.717 81.136C129.258 81.136 128.869 81.2693 128.549 81.536C128.24 81.8027 128.048 82.1813 127.973 82.672H131.397ZM138.376 80.56C138.696 80.0693 139.096 79.6853 139.576 79.408C140.056 79.12 140.59 78.976 141.176 78.976V81.872H140.424C139.742 81.872 139.23 82.0213 138.888 82.32C138.547 82.608 138.376 83.12 138.376 83.856V88H135.64V79.072H138.376V80.56ZM150.9 83.392C150.9 83.648 150.884 83.9147 150.852 84.192H144.66C144.703 84.7467 144.879 85.1733 145.188 85.472C145.508 85.76 145.898 85.904 146.356 85.904C147.039 85.904 147.514 85.616 147.78 85.04H150.692C150.543 85.6267 150.271 86.1547 149.876 86.624C149.492 87.0933 149.007 87.4613 148.42 87.728C147.834 87.9947 147.178 88.128 146.452 88.128C145.578 88.128 144.799 87.9413 144.116 87.568C143.434 87.1947 142.9 86.6613 142.516 85.968C142.132 85.2747 141.94 84.464 141.94 83.536C141.94 82.608 142.127 81.7973 142.5 81.104C142.884 80.4107 143.418 79.8773 144.1 79.504C144.783 79.1307 145.567 78.944 146.452 78.944C147.316 78.944 148.084 79.1253 148.756 79.488C149.428 79.8507 149.951 80.368 150.324 81.04C150.708 81.712 150.9 82.496 150.9 83.392ZM148.1 82.672C148.1 82.2027 147.94 81.8293 147.62 81.552C147.3 81.2747 146.9 81.136 146.42 81.136C145.962 81.136 145.572 81.2693 145.252 81.536C144.943 81.8027 144.751 82.1813 144.676 82.672H148.1Z" fill="#3A3A3C"/>
</svg>
