<svg width="141" height="141" viewBox="0 0 141 141" fill="none" xmlns="http://www.w3.org/2000/svg">
<g clip-path="url(#clip0_2947_699)">
<path d="M88.7152 7.66689C86.3431 5.2394 83.5098 3.31052 80.3817 1.9936C77.2536 0.676683 73.8938 -0.00170898 70.4997 -0.00170898C67.1057 -0.00170898 63.7459 0.676683 60.6178 1.9936C57.4897 3.31052 54.6564 5.2394 52.2843 7.66689L46.8029 13.2893L38.9598 13.1923C35.5648 13.1521 32.196 13.7912 29.0516 15.0719C25.9071 16.3526 23.0505 18.2492 20.6497 20.65C18.2489 23.0508 16.3524 25.9074 15.0717 29.0518C13.7909 32.1963 13.1519 35.5651 13.1921 38.9601L13.2802 46.8032L7.67543 52.2846C5.24794 54.6566 3.31907 57.49 2.00215 60.6181C0.685228 63.7462 0.00683594 67.106 0.00683594 70.5C0.00683594 73.894 0.685228 77.2538 2.00215 80.3819C3.31907 83.5101 5.24794 86.3434 7.67543 88.7155L13.289 94.1968L13.1921 102.04C13.1519 105.435 13.7909 108.804 15.0717 111.948C16.3524 115.093 18.2489 117.949 20.6497 120.35C23.0505 122.751 25.9071 124.647 29.0516 125.928C32.196 127.209 35.5648 127.848 38.9598 127.808L46.8029 127.72L52.2843 133.324C54.6564 135.752 57.4897 137.681 60.6178 138.998C63.7459 140.315 67.1057 140.993 70.4997 140.993C73.8938 140.993 77.2536 140.315 80.3817 138.998C83.5098 137.681 86.3431 135.752 88.7152 133.324L94.1966 127.711L102.04 127.808C105.435 127.848 108.803 127.209 111.948 125.928C115.092 124.647 117.949 122.751 120.35 120.35C122.751 117.949 124.647 115.093 125.928 111.948C127.209 108.804 127.848 105.435 127.807 102.04L127.719 94.1968L133.324 88.7155C135.752 86.3434 137.68 83.5101 138.997 80.3819C140.314 77.2538 140.993 73.894 140.993 70.5C140.993 67.106 140.314 63.7462 138.997 60.6181C137.68 57.49 135.752 54.6566 133.324 52.2846L127.71 46.8032L127.807 38.9601C127.848 35.5651 127.209 32.1963 125.928 29.0518C124.647 25.9074 122.751 23.0508 120.35 20.65C117.949 18.2492 115.092 16.3526 111.948 15.0719C108.803 13.7912 105.435 13.1521 102.04 13.1923L94.1966 13.2804L88.7152 7.66689ZM91.2444 60.4009L64.8069 86.8384C64.3976 87.2487 63.9113 87.5743 63.376 87.7964C62.8407 88.0185 62.2668 88.1329 61.6872 88.1329C61.1077 88.1329 60.5338 88.0185 59.9985 87.7964C59.4632 87.5743 58.9769 87.2487 58.5676 86.8384L45.3489 73.6196C44.9392 73.21 44.6142 72.7236 44.3925 72.1883C44.1708 71.6531 44.0567 71.0794 44.0567 70.5C44.0567 69.9206 44.1708 69.3469 44.3925 68.8117C44.6142 68.2764 44.9392 67.7901 45.3489 67.3804C45.7585 66.9707 46.2449 66.6457 46.7802 66.424C47.3154 66.2023 47.8891 66.0882 48.4685 66.0882C49.0479 66.0882 49.6216 66.2023 50.1568 66.424C50.6921 66.6457 51.1784 66.9707 51.5881 67.3804L61.6872 77.4883L85.0051 54.1616C85.8325 53.3343 86.9547 52.8694 88.1247 52.8694C89.2948 52.8694 90.417 53.3343 91.2444 54.1616C92.0717 54.989 92.5366 56.1112 92.5366 57.2813C92.5366 58.4514 92.0717 59.5735 91.2444 60.4009Z" fill="black"/>
</g>
<defs>
<clipPath id="clip0_2947_699">
<rect width="141" height="141" fill="white"/>
</clipPath>
</defs>
</svg>
