<svg width="48" height="40" viewBox="0 0 48 40" fill="none" xmlns="http://www.w3.org/2000/svg">
<path d="M24.9818 10.0461L25.0695 10.0705L25.0745 10.0651C25.3863 10.1072 25.6996 9.93225 25.7962 9.62831C26.6005 7.10829 29.1398 5.33788 31.9793 5.33788C32.3323 5.33788 32.6369 5.06843 32.6369 4.71454C32.6369 4.36064 32.3323 4.09121 31.9793 4.09121C28.4591 4.09121 25.4919 6.27711 24.5376 9.26735C24.4289 9.60728 24.6399 9.95101 24.9818 10.0461Z" fill="#3A3A3C" stroke="#F9FFF9" stroke-width="0.3"/>
<path d="M39.0866 27.9073H36.0409C35.7606 27.9073 35.5333 27.6953 35.5333 27.434C35.5333 27.1726 35.7606 26.9606 36.0409 26.9606H39.0866C43.2849 26.9606 46.7008 23.7754 46.7008 19.8607C46.7008 15.946 43.2849 12.7608 39.0866 12.7608H39.0133C38.8661 12.7608 38.7262 12.7013 38.6297 12.5975C38.5333 12.4937 38.4898 12.3561 38.5108 12.2202C38.5561 11.9254 38.579 11.6292 38.579 11.3408C38.579 7.94811 35.6184 5.18755 31.9799 5.18755C30.5644 5.18755 29.2145 5.60002 28.076 6.38066C27.8258 6.55208 27.4705 6.47601 27.3258 6.21939C24.1014 0.494183 15.6796 -0.274654 11.3133 4.70578C9.47393 6.80396 8.75123 9.53336 9.33034 12.1935C9.39415 12.4873 9.15303 12.7612 8.83288 12.7612H8.62947C4.43118 12.7612 1.01528 15.9464 1.01528 19.8611C1.01528 23.7758 4.43118 26.961 8.62947 26.961H11.6751C11.9554 26.961 12.1827 27.173 12.1827 27.4343C12.1827 27.6957 11.9554 27.9077 11.6751 27.9077H8.62947C3.87128 27.9077 0 24.2979 0 19.8611C0 15.5487 3.65696 12.0177 8.23099 11.8229C7.80133 9.06306 8.62294 6.27922 10.5272 4.10669C15.2019 -1.22601 24.1607 -0.628286 27.9478 5.31806C29.156 4.61179 30.5385 4.24128 31.9798 4.24128C36.388 4.24128 39.8812 7.73986 39.5755 11.8273C44.1074 12.0643 47.7158 15.5768 47.7158 19.8607C47.7158 24.2979 43.8445 27.9073 39.0863 27.9073L39.0866 27.9073Z" fill="#3A3A3C"/>
<path d="M10.9496 27.1668C10.9496 33.7843 16.7198 39.1501 23.7901 39.1501C30.8605 39.1501 36.6306 33.7842 36.6306 27.1668C36.6306 20.5493 30.8605 15.1835 23.7901 15.1835C16.7197 15.1835 10.9496 20.5494 10.9496 27.1668ZM12.2651 27.1668C12.2651 21.2567 17.4253 16.4304 23.7901 16.4304C30.1548 16.4304 35.3151 21.2566 35.3151 27.1668C35.3151 33.077 30.1548 37.9033 23.7901 37.9033C17.4254 37.9033 12.2651 33.0771 12.2651 27.1668Z" fill="#3A3A3C" stroke="#F9FFF9" stroke-width="0.3"/>
<path d="M23.5004 31.9301C23.5004 32.214 23.744 32.4266 24.022 32.4266C24.2999 32.4266 24.5437 32.2143 24.5437 31.9301V22.9203C24.5437 22.6364 24.3 22.4237 24.022 22.4237C23.744 22.4237 23.5004 22.6364 23.5004 22.9203V31.9301Z" fill="#3A3A3C" stroke="#3A3A3C" stroke-width="0.3"/>
<path d="M23.6574 22.5661C23.86 22.3769 24.1848 22.377 24.3875 22.5661L27.3606 25.3383C27.5693 25.5329 27.5694 25.8529 27.3608 26.0476L23.6574 22.5661ZM23.6574 22.5661C23.6573 22.5661 23.6573 22.5661 23.6573 22.5661L20.6843 25.3383C20.4755 25.533 20.4755 25.8531 20.6843 26.0478C20.8871 26.2368 21.2119 26.237 21.4145 26.0478C21.4146 26.0477 21.4146 26.0477 21.4146 26.0477L24.0225 23.616L26.6304 26.0478C26.7328 26.1432 26.8655 26.1895 26.9955 26.1895L23.6574 22.5661ZM26.9955 26.1895C27.1252 26.1895 27.2581 26.1436 27.3607 26.0477L26.9955 26.1895Z" fill="#3A3A3C" stroke="#3A3A3C" stroke-width="0.3"/>
</svg>
