<svg width="54" height="47" viewBox="0 0 54 47" fill="none" xmlns="http://www.w3.org/2000/svg">
<path d="M28.1489 11.4858L28.077 11.4644C27.7142 11.3562 27.5075 10.9747 27.6157 10.6118M28.1489 11.4858L28.9297 11.0024C29.8407 7.9416 32.7106 5.80335 35.9081 5.80335C36.2866 5.80335 36.5937 5.49632 36.5937 5.11778C36.5937 4.73922 36.2866 4.4322 35.9081 4.4322C31.9784 4.4322 28.6761 7.04862 27.6157 10.6118M28.1489 11.4858L28.152 11.4822M28.1489 11.4858L28.152 11.4822M27.6157 10.6118L27.7275 10.6451M27.6157 10.6118C27.6157 10.6118 27.6157 10.6118 27.6157 10.6118L27.7275 10.6451M27.7275 10.6451C27.6377 10.9462 27.8092 11.2628 28.1103 11.3526L35.9081 5.68672C36.2222 5.68672 36.477 5.43191 36.477 5.11778C36.477 4.80363 36.2222 4.54883 35.9081 4.54883C32.0315 4.54883 28.7736 7.12984 27.7275 10.6451ZM28.152 11.4822C28.4923 11.5438 28.8297 11.34 28.9297 11.0026L28.152 11.4822Z" fill="black" stroke="#F9FFF9" stroke-width="0.233259"/>
<path d="M43.8723 32.9971H40.4587C40.1446 32.9971 39.8898 32.7423 39.8898 32.4281C39.8898 32.114 40.1446 31.8592 40.4587 31.8592H43.8723C48.5779 31.8592 52.4065 28.0306 52.4065 23.3251C52.4065 18.6196 48.5779 14.791 43.8723 14.791H43.7903C43.6253 14.791 43.4684 14.7194 43.3603 14.5947C43.2522 14.4699 43.2034 14.3045 43.227 14.1411C43.2778 13.7868 43.3034 13.4308 43.3034 13.0841C43.3034 9.00607 39.9852 5.68786 35.9071 5.68786C34.3206 5.68786 32.8076 6.18365 31.5315 7.12199C31.2511 7.32803 30.8528 7.2366 30.6907 6.92814C27.0767 0.0464179 17.6374 -0.877727 12.7436 5.10877C10.682 7.63079 9.872 10.9115 10.5211 14.1091C10.5926 14.4622 10.3223 14.7914 9.96351 14.7914H9.73553C5.03002 14.7914 1.20141 18.62 1.20141 23.3255C1.20141 28.031 5.03002 31.8596 9.73553 31.8596H13.1491C13.4633 31.8596 13.7181 32.1144 13.7181 32.4286C13.7181 32.7427 13.4633 32.9975 13.1491 32.9975H9.73553C4.40247 32.9975 0.0634766 28.6585 0.0634766 23.3255C0.0634766 18.142 4.16226 13.8977 9.28891 13.6636C8.80734 10.3462 9.72821 7.00005 11.8625 4.38866C17.1021 -2.02126 27.1432 -1.30279 31.3879 5.84474C32.742 4.99579 34.2915 4.55044 35.9069 4.55044C40.8478 4.55044 44.7629 8.75575 44.4204 13.6689C49.4998 13.9538 53.5441 18.1757 53.5441 23.3251C53.5441 28.6585 49.2051 32.9971 43.8721 32.9971L43.8723 32.9971Z" fill="black"/>
<path d="M12.3873 32.1068C12.3873 40.0142 18.8203 46.4471 26.7276 46.4471C34.635 46.4471 41.0679 40.0141 41.0679 32.1068C41.0679 24.1993 34.635 17.7664 26.7276 17.7664C18.8202 17.7664 12.3873 24.1994 12.3873 32.1068ZM13.7587 32.1068C13.7587 24.9559 19.5767 19.1378 26.7276 19.1378C33.8785 19.1378 39.6965 24.9558 39.6965 32.1068C39.6965 39.2576 33.8785 45.0757 26.7276 45.0757C19.5768 45.0757 13.7587 39.2577 13.7587 32.1068Z" fill="black" stroke="#F9FFF9" stroke-width="0.233259"/>
<path d="M26.4539 37.8348C26.4539 38.1292 26.6927 38.3679 26.9871 38.3679C27.2814 38.3679 27.5202 38.1295 27.5202 37.8348V27.0049C27.5202 26.7105 27.2815 26.4717 26.9871 26.4717C26.6927 26.4717 26.4539 26.7105 26.4539 27.0049V37.8348Z" fill="black" stroke="#B2CFF1" stroke-width="0.233259"/>
<path d="M26.9869 27.759L24.0317 30.7141C24.0317 30.7141 24.0317 30.7141 24.0317 30.7142L26.9869 27.759ZM26.9869 27.759L29.9421 30.7142C30.046 30.8182 30.1829 30.8703 30.3191 30.8703L26.9869 27.759ZM30.6961 30.7142C30.9044 30.5059 30.9044 30.1685 30.6961 29.9602L27.3639 26.628C27.1556 26.4197 26.8178 26.4196 26.6098 26.628L30.6961 30.7142ZM30.6961 30.7142C30.5919 30.8186 30.455 30.8703 30.3191 30.8703L30.6962 30.7141C30.6962 30.7141 30.6961 30.7142 30.6961 30.7142Z" fill="black" stroke="#B2CFF1" stroke-width="0.233259"/>
</svg>
