<svg width="655" height="167" viewBox="0 0 655 167" fill="none" xmlns="http://www.w3.org/2000/svg">
<path d="M75.9 110.7C82.1 112.1 87 115.2 90.6 120C94.3 124.7 96.15 130.1 96.15 136.2C96.15 145.2 93.05 152.25 86.85 157.35C80.65 162.45 71.95 165 60.75 165H8.4V59.25H59.1C69.9 59.25 78.35 61.65 84.45 66.45C90.65 71.25 93.75 78 93.75 86.7C93.75 92.9 92.1 98.1 88.8 102.3C85.6 106.4 81.3 109.2 75.9 110.7ZM37.8 101.25H52.65C60.05 101.25 63.75 98.2 63.75 92.1C63.75 85.8 60.05 82.65 52.65 82.65H37.8V101.25ZM54.9 141.3C62.3 141.3 66 138.2 66 132C66 128.8 65 126.35 63 124.65C61.1 122.95 58.35 122.1 54.75 122.1H37.8V141.3H54.9ZM189.435 121.95C189.435 124.25 189.285 126.55 188.985 128.85H133.335C133.635 133.45 134.885 136.9 137.085 139.2C139.385 141.4 142.285 142.5 145.785 142.5C150.685 142.5 154.185 140.3 156.285 135.9H187.635C186.335 141.7 183.785 146.9 179.985 151.5C176.285 156 171.585 159.55 165.885 162.15C160.185 164.75 153.885 166.05 146.985 166.05C138.685 166.05 131.285 164.3 124.785 160.8C118.385 157.3 113.335 152.3 109.635 145.8C106.035 139.3 104.235 131.65 104.235 122.85C104.235 114.05 106.035 106.45 109.635 100.05C113.235 93.55 118.235 88.55 124.635 85.05C131.135 81.55 138.585 79.8 146.985 79.8C155.285 79.8 162.635 81.5 169.035 84.9C175.435 88.3 180.435 93.2 184.035 99.6C187.635 105.9 189.435 113.35 189.435 121.95ZM159.435 114.6C159.435 111 158.235 108.2 155.835 106.2C153.435 104.1 150.435 103.05 146.835 103.05C143.235 103.05 140.285 104.05 137.985 106.05C135.685 107.95 134.185 110.8 133.485 114.6H159.435ZM196.666 122.85C196.666 114.15 198.216 106.55 201.316 100.05C204.516 93.55 208.866 88.55 214.366 85.05C219.866 81.55 225.966 79.8 232.666 79.8C238.066 79.8 242.866 80.95 247.066 83.25C251.366 85.45 254.716 88.5 257.116 92.4V54H286.666V165H257.116V153.3C254.816 157.2 251.566 160.3 247.366 162.6C243.166 164.9 238.216 166.05 232.516 166.05C225.816 166.05 219.716 164.3 214.216 160.8C208.816 157.3 204.516 152.3 201.316 145.8C198.216 139.2 196.666 131.55 196.666 122.85ZM257.266 122.85C257.266 117.45 255.766 113.2 252.766 110.1C249.866 107 246.266 105.45 241.966 105.45C237.566 105.45 233.916 107 231.016 110.1C228.116 113.1 226.666 117.35 226.666 122.85C226.666 128.25 228.116 132.55 231.016 135.75C233.916 138.85 237.566 140.4 241.966 140.4C246.266 140.4 249.866 138.85 252.766 135.75C255.766 132.65 257.266 128.35 257.266 122.85ZM332.82 95.7C336.12 90.9 340.12 87.1 344.82 84.3C349.52 81.5 354.57 80.1 359.97 80.1V111.45H351.72C345.32 111.45 340.57 112.7 337.47 115.2C334.37 117.7 332.82 122.05 332.82 128.25V165H303.42V80.85H332.82V95.7ZM409.659 166.05C401.259 166.05 393.709 164.3 387.009 160.8C380.409 157.3 375.209 152.3 371.409 145.8C367.609 139.3 365.709 131.65 365.709 122.85C365.709 114.15 367.609 106.55 371.409 100.05C375.309 93.55 380.559 88.55 387.159 85.05C393.859 81.55 401.409 79.8 409.809 79.8C418.209 79.8 425.709 81.55 432.309 85.05C439.009 88.55 444.259 93.55 448.059 100.05C451.959 106.55 453.909 114.15 453.909 122.85C453.909 131.55 451.959 139.2 448.059 145.8C444.259 152.3 439.009 157.3 432.309 160.8C425.609 164.3 418.059 166.05 409.659 166.05ZM409.659 140.55C413.759 140.55 417.159 139.05 419.859 136.05C422.659 132.95 424.059 128.55 424.059 122.85C424.059 117.15 422.659 112.8 419.859 109.8C417.159 106.8 413.809 105.3 409.809 105.3C405.809 105.3 402.459 106.8 399.759 109.8C397.059 112.8 395.709 117.15 395.709 122.85C395.709 128.65 397.009 133.05 399.609 136.05C402.209 139.05 405.559 140.55 409.659 140.55ZM461.071 122.85C461.071 114.15 462.871 106.55 466.471 100.05C470.071 93.55 475.071 88.55 481.471 85.05C487.971 81.55 495.371 79.8 503.671 79.8C514.371 79.8 523.371 82.75 530.671 88.65C537.971 94.45 542.671 102.6 544.771 113.1H513.571C511.771 107.6 508.271 104.85 503.071 104.85C499.371 104.85 496.421 106.4 494.221 109.5C492.121 112.5 491.071 116.95 491.071 122.85C491.071 128.75 492.121 133.25 494.221 136.35C496.421 139.45 499.371 141 503.071 141C508.371 141 511.871 138.25 513.571 132.75H544.771C542.671 143.15 537.971 151.3 530.671 157.2C523.371 163.1 514.371 166.05 503.671 166.05C495.371 166.05 487.971 164.3 481.471 160.8C475.071 157.3 470.071 152.3 466.471 145.8C462.871 139.3 461.071 131.65 461.071 122.85ZM609.634 165L586.384 130.5V165H556.984V54H586.384V113.85L609.634 80.85H644.884L611.734 123.15L645.484 165H609.634Z" fill="#919EAB" fill-opacity="0.2"/>
<path d="M137.08 110.08L129.28 138H122.68L117.44 118.12L111.96 138L105.4 138.04L97.88 110.08H103.88L108.8 131.76L114.48 110.08H120.72L126.08 131.64L131.04 110.08H137.08ZM161.337 126.44C161.337 127.24 161.283 127.96 161.177 128.6H144.977C145.11 130.2 145.67 131.453 146.657 132.36C147.643 133.267 148.857 133.72 150.297 133.72C152.377 133.72 153.857 132.827 154.737 131.04H160.777C160.137 133.173 158.91 134.933 157.097 136.32C155.283 137.68 153.057 138.36 150.417 138.36C148.283 138.36 146.363 137.893 144.657 136.96C142.977 136 141.657 134.653 140.697 132.92C139.763 131.187 139.297 129.187 139.297 126.92C139.297 124.627 139.763 122.613 140.697 120.88C141.63 119.147 142.937 117.813 144.617 116.88C146.297 115.947 148.23 115.48 150.417 115.48C152.523 115.48 154.403 115.933 156.057 116.84C157.737 117.747 159.03 119.04 159.937 120.72C160.87 122.373 161.337 124.28 161.337 126.44ZM155.537 124.84C155.51 123.4 154.99 122.253 153.977 121.4C152.963 120.52 151.723 120.08 150.257 120.08C148.87 120.08 147.697 120.507 146.737 121.36C145.803 122.187 145.23 123.347 145.017 124.84H155.537ZM171.024 108.4V138H165.424V108.4H171.024ZM175.117 126.92C175.117 124.627 175.584 122.627 176.517 120.92C177.45 119.187 178.744 117.853 180.397 116.92C182.05 115.96 183.944 115.48 186.077 115.48C188.824 115.48 191.09 116.173 192.877 117.56C194.69 118.92 195.904 120.84 196.517 123.32H190.477C190.157 122.36 189.61 121.613 188.837 121.08C188.09 120.52 187.157 120.24 186.037 120.24C184.437 120.24 183.17 120.827 182.237 122C181.304 123.147 180.837 124.787 180.837 126.92C180.837 129.027 181.304 130.667 182.237 131.84C183.17 132.987 184.437 133.56 186.037 133.56C188.304 133.56 189.784 132.547 190.477 130.52H196.517C195.904 132.92 194.69 134.827 192.877 136.24C191.064 137.653 188.797 138.36 186.077 138.36C183.944 138.36 182.05 137.893 180.397 136.96C178.744 136 177.45 134.667 176.517 132.96C175.584 131.227 175.117 129.213 175.117 126.92ZM210.459 138.36C208.326 138.36 206.406 137.893 204.699 136.96C202.993 136 201.646 134.653 200.659 132.92C199.699 131.187 199.219 129.187 199.219 126.92C199.219 124.653 199.713 122.653 200.699 120.92C201.713 119.187 203.086 117.853 204.819 116.92C206.553 115.96 208.486 115.48 210.619 115.48C212.753 115.48 214.686 115.96 216.419 116.92C218.153 117.853 219.513 119.187 220.499 120.92C221.513 122.653 222.019 124.653 222.019 126.92C222.019 129.187 221.499 131.187 220.459 132.92C219.446 134.653 218.059 136 216.299 136.96C214.566 137.893 212.619 138.36 210.459 138.36ZM210.459 133.48C211.473 133.48 212.419 133.24 213.299 132.76C214.206 132.253 214.926 131.507 215.459 130.52C215.993 129.533 216.259 128.333 216.259 126.92C216.259 124.813 215.699 123.2 214.579 122.08C213.486 120.933 212.139 120.36 210.539 120.36C208.939 120.36 207.593 120.933 206.499 122.08C205.433 123.2 204.899 124.813 204.899 126.92C204.899 129.027 205.419 130.653 206.459 131.8C207.526 132.92 208.859 133.48 210.459 133.48ZM253.647 115.52C256.367 115.52 258.554 116.36 260.207 118.04C261.887 119.693 262.727 122.013 262.727 125V138H257.127V125.76C257.127 124.027 256.687 122.707 255.807 121.8C254.927 120.867 253.727 120.4 252.207 120.4C250.687 120.4 249.474 120.867 248.567 121.8C247.687 122.707 247.247 124.027 247.247 125.76V138H241.647V125.76C241.647 124.027 241.207 122.707 240.327 121.8C239.447 120.867 238.247 120.4 236.727 120.4C235.181 120.4 233.954 120.867 233.047 121.8C232.167 122.707 231.727 124.027 231.727 125.76V138H226.127V115.84H231.727V118.52C232.447 117.587 233.367 116.853 234.487 116.32C235.634 115.787 236.887 115.52 238.247 115.52C239.981 115.52 241.527 115.893 242.887 116.64C244.247 117.36 245.301 118.4 246.047 119.76C246.767 118.48 247.807 117.453 249.167 116.68C250.554 115.907 252.047 115.52 253.647 115.52ZM288.641 126.44C288.641 127.24 288.588 127.96 288.481 128.6H272.281C272.415 130.2 272.975 131.453 273.961 132.36C274.948 133.267 276.161 133.72 277.601 133.72C279.681 133.72 281.161 132.827 282.041 131.04H288.081C287.441 133.173 286.215 134.933 284.401 136.32C282.588 137.68 280.361 138.36 277.721 138.36C275.588 138.36 273.668 137.893 271.961 136.96C270.281 136 268.961 134.653 268.001 132.92C267.068 131.187 266.601 129.187 266.601 126.92C266.601 124.627 267.068 122.613 268.001 120.88C268.935 119.147 270.241 117.813 271.921 116.88C273.601 115.947 275.535 115.48 277.721 115.48C279.828 115.48 281.708 115.933 283.361 116.84C285.041 117.747 286.335 119.04 287.241 120.72C288.175 122.373 288.641 124.28 288.641 126.44ZM282.841 124.84C282.815 123.4 282.295 122.253 281.281 121.4C280.268 120.52 279.028 120.08 277.561 120.08C276.175 120.08 275.001 120.507 274.041 121.36C273.108 122.187 272.535 123.347 272.321 124.84H282.841ZM321.26 110.08V114.6H313.82V138H308.22V114.6H300.78V110.08H321.26ZM335.186 138.36C333.053 138.36 331.133 137.893 329.426 136.96C327.719 136 326.373 134.653 325.386 132.92C324.426 131.187 323.946 129.187 323.946 126.92C323.946 124.653 324.439 122.653 325.426 120.92C326.439 119.187 327.813 117.853 329.546 116.92C331.279 115.96 333.213 115.48 335.346 115.48C337.479 115.48 339.413 115.96 341.146 116.92C342.879 117.853 344.239 119.187 345.226 120.92C346.239 122.653 346.746 124.653 346.746 126.92C346.746 129.187 346.226 131.187 345.186 132.92C344.173 134.653 342.786 136 341.026 136.96C339.293 137.893 337.346 138.36 335.186 138.36ZM335.186 133.48C336.199 133.48 337.146 133.24 338.026 132.76C338.933 132.253 339.653 131.507 340.186 130.52C340.719 129.533 340.986 128.333 340.986 126.92C340.986 124.813 340.426 123.2 339.306 122.08C338.213 120.933 336.866 120.36 335.266 120.36C333.666 120.36 332.319 120.933 331.226 122.08C330.159 123.2 329.626 124.813 329.626 126.92C329.626 129.027 330.146 130.653 331.186 131.8C332.253 132.92 333.586 133.48 335.186 133.48ZM376.225 123.68C377.798 123.973 379.092 124.76 380.105 126.04C381.118 127.32 381.625 128.787 381.625 130.44C381.625 131.933 381.252 133.253 380.505 134.4C379.785 135.52 378.732 136.4 377.345 137.04C375.958 137.68 374.318 138 372.425 138H360.385V110.08H371.905C373.798 110.08 375.425 110.387 376.785 111C378.172 111.613 379.212 112.467 379.905 113.56C380.625 114.653 380.985 115.893 380.985 117.28C380.985 118.907 380.545 120.267 379.665 121.36C378.812 122.453 377.665 123.227 376.225 123.68ZM365.985 121.6H371.105C372.438 121.6 373.465 121.307 374.185 120.72C374.905 120.107 375.265 119.24 375.265 118.12C375.265 117 374.905 116.133 374.185 115.52C373.465 114.907 372.438 114.6 371.105 114.6H365.985V121.6ZM371.625 133.44C372.985 133.44 374.038 133.12 374.785 132.48C375.558 131.84 375.945 130.933 375.945 129.76C375.945 128.56 375.545 127.627 374.745 126.96C373.945 126.267 372.865 125.92 371.505 125.92H365.985V133.44H371.625ZM406.688 126.44C406.688 127.24 406.635 127.96 406.528 128.6H390.328C390.461 130.2 391.021 131.453 392.008 132.36C392.995 133.267 394.208 133.72 395.648 133.72C397.728 133.72 399.208 132.827 400.088 131.04H406.128C405.488 133.173 404.261 134.933 402.448 136.32C400.635 137.68 398.408 138.36 395.768 138.36C393.635 138.36 391.715 137.893 390.008 136.96C388.328 136 387.008 134.653 386.048 132.92C385.115 131.187 384.648 129.187 384.648 126.92C384.648 124.627 385.115 122.613 386.048 120.88C386.981 119.147 388.288 117.813 389.968 116.88C391.648 115.947 393.581 115.48 395.768 115.48C397.875 115.48 399.755 115.933 401.408 116.84C403.088 117.747 404.381 119.04 405.288 120.72C406.221 122.373 406.688 124.28 406.688 126.44ZM400.888 124.84C400.861 123.4 400.341 122.253 399.328 121.4C398.315 120.52 397.075 120.08 395.608 120.08C394.221 120.08 393.048 120.507 392.088 121.36C391.155 122.187 390.581 123.347 390.368 124.84H400.888ZM409.336 126.84C409.336 124.6 409.776 122.613 410.656 120.88C411.562 119.147 412.789 117.813 414.336 116.88C415.882 115.947 417.602 115.48 419.496 115.48C420.936 115.48 422.309 115.8 423.616 116.44C424.922 117.053 425.962 117.88 426.736 118.92V108.4H432.416V138H426.736V134.72C426.042 135.813 425.069 136.693 423.816 137.36C422.562 138.027 421.109 138.36 419.456 138.36C417.589 138.36 415.882 137.88 414.336 136.92C412.789 135.96 411.562 134.613 410.656 132.88C409.776 131.12 409.336 129.107 409.336 126.84ZM426.776 126.92C426.776 125.56 426.509 124.4 425.976 123.44C425.442 122.453 424.722 121.707 423.816 121.2C422.909 120.667 421.936 120.4 420.896 120.4C419.856 120.4 418.896 120.653 418.016 121.16C417.136 121.667 416.416 122.413 415.856 123.4C415.322 124.36 415.056 125.507 415.056 126.84C415.056 128.173 415.322 129.347 415.856 130.36C416.416 131.347 417.136 132.107 418.016 132.64C418.922 133.173 419.882 133.44 420.896 133.44C421.936 133.44 422.909 133.187 423.816 132.68C424.722 132.147 425.442 131.4 425.976 130.44C426.509 129.453 426.776 128.28 426.776 126.92ZM452.285 138L446.125 127.12H443.485V138H437.885V110.08H448.365C450.525 110.08 452.365 110.467 453.885 111.24C455.405 111.987 456.538 113.013 457.285 114.32C458.058 115.6 458.445 117.04 458.445 118.64C458.445 120.48 457.912 122.147 456.845 123.64C455.778 125.107 454.192 126.12 452.085 126.68L458.765 138H452.285ZM443.485 122.92H448.165C449.685 122.92 450.818 122.56 451.565 121.84C452.312 121.093 452.685 120.067 452.685 118.76C452.685 117.48 452.312 116.493 451.565 115.8C450.818 115.08 449.685 114.72 448.165 114.72H443.485V122.92ZM473.35 138.36C471.217 138.36 469.297 137.893 467.59 136.96C465.883 136 464.537 134.653 463.55 132.92C462.59 131.187 462.11 129.187 462.11 126.92C462.11 124.653 462.603 122.653 463.59 120.92C464.603 119.187 465.977 117.853 467.71 116.92C469.443 115.96 471.377 115.48 473.51 115.48C475.643 115.48 477.577 115.96 479.31 116.92C481.043 117.853 482.403 119.187 483.39 120.92C484.403 122.653 484.91 124.653 484.91 126.92C484.91 129.187 484.39 131.187 483.35 132.92C482.337 134.653 480.95 136 479.19 136.96C477.457 137.893 475.51 138.36 473.35 138.36ZM473.35 133.48C474.363 133.48 475.31 133.24 476.19 132.76C477.097 132.253 477.817 131.507 478.35 130.52C478.883 129.533 479.15 128.333 479.15 126.92C479.15 124.813 478.59 123.2 477.47 122.08C476.377 120.933 475.03 120.36 473.43 120.36C471.83 120.36 470.483 120.933 469.39 122.08C468.323 123.2 467.79 124.813 467.79 126.92C467.79 129.027 468.31 130.653 469.35 131.8C470.417 132.92 471.75 133.48 473.35 133.48ZM487.578 126.92C487.578 124.627 488.044 122.627 488.978 120.92C489.911 119.187 491.204 117.853 492.858 116.92C494.511 115.96 496.404 115.48 498.538 115.48C501.284 115.48 503.551 116.173 505.338 117.56C507.151 118.92 508.364 120.84 508.978 123.32H502.938C502.618 122.36 502.071 121.613 501.298 121.08C500.551 120.52 499.618 120.24 498.498 120.24C496.898 120.24 495.631 120.827 494.698 122C493.764 123.147 493.298 124.787 493.298 126.92C493.298 129.027 493.764 130.667 494.698 131.84C495.631 132.987 496.898 133.56 498.498 133.56C500.764 133.56 502.244 132.547 502.938 130.52H508.978C508.364 132.92 507.151 134.827 505.338 136.24C503.524 137.653 501.258 138.36 498.538 138.36C496.404 138.36 494.511 137.893 492.858 136.96C491.204 136 489.911 134.667 488.978 132.96C488.044 131.227 487.578 129.213 487.578 126.92ZM526.2 138L518.68 128.56V138H513.08V108.4H518.68V125.24L526.12 115.84H533.4L523.64 126.96L533.48 138H526.2ZM553.211 109.6L552.571 128.92H547.851L547.171 109.6H553.211ZM550.331 138.28C549.318 138.28 548.478 137.973 547.811 137.36C547.171 136.72 546.851 135.933 546.851 135C546.851 134.067 547.171 133.293 547.811 132.68C548.478 132.04 549.318 131.72 550.331 131.72C551.318 131.72 552.131 132.04 552.771 132.68C553.411 133.293 553.731 134.067 553.731 135C553.731 135.933 553.411 136.72 552.771 137.36C552.131 137.973 551.318 138.28 550.331 138.28Z" fill="white"/>
</svg>
